<svg width="14" height="14" viewBox="0 0 14 14" fill="none" xmlns="http://www.w3.org/2000/svg">
<g clip-path="url(#clip0_4621_85)">
<path d="M2.14244 13.8572C1.98026 13.8568 1.82093 13.8147 1.67982 13.7351C1.53269 13.6542 1.4102 13.5353 1.32527 13.3908C1.24034 13.2464 1.19613 13.0817 1.19729 12.9143V1.08403C1.19729 0.916833 1.242 0.752656 1.32681 0.608385C1.41163 0.464114 1.53349 0.344957 1.67986 0.263171C1.82624 0.181385 1.99184 0.139922 2.15963 0.143048C2.32742 0.146174 2.49135 0.193775 2.63455 0.280955L12.3497 6.19611C12.4877 6.28019 12.6018 6.39819 12.681 6.5388C12.7601 6.6794 12.8017 6.83791 12.8017 6.99911C12.8017 7.16032 12.7601 7.31883 12.681 7.45943C12.6018 7.60004 12.4877 7.71804 12.3497 7.80212L2.63462 13.7173C2.48667 13.8083 2.31631 13.8567 2.14244 13.8571V13.8572ZM2.14264 0.948906C2.11923 0.949136 2.09626 0.955314 2.07591 0.966855C2.05468 0.978157 2.03701 0.995092 2.02485 1.01579C2.01269 1.03648 2.00651 1.06012 2.00701 1.0841V12.9143C2.00702 12.9382 2.01341 12.9617 2.02553 12.9823C2.03765 13.0029 2.05506 13.0199 2.07597 13.0316C2.09688 13.0433 2.12054 13.0492 2.14451 13.0487C2.16847 13.0483 2.19189 13.0415 2.21234 13.029L11.9275 7.114C11.9472 7.10199 11.9635 7.08514 11.9749 7.06504C11.9862 7.04495 11.9921 7.02229 11.9921 6.99925C11.9921 6.97621 11.9862 6.95355 11.9749 6.93346C11.9635 6.91336 11.9472 6.8965 11.9275 6.8845L2.21234 0.96941C2.19149 0.956214 2.16734 0.94911 2.14264 0.948906Z" fill="#008076"/>
</g>
<defs>
<clipPath id="clip0_4621_85">
<rect width="13.7143" height="13.7143" fill="white" transform="translate(0.142578 0.142883)"/>
</clipPath>
</defs>
</svg>
