<svg width="20" height="20" viewBox="0 0 20 20" fill="none" xmlns="http://www.w3.org/2000/svg">
<g clip-path="url(#clip0_642_1514)">
<path d="M14.8719 12.6911C14.4168 12.6933 13.968 12.7943 13.5586 12.9867C13.1492 13.179 12.7897 13.4578 12.5066 13.8025L8.06189 11.1152C8.22388 10.6096 8.22388 10.0684 8.06189 9.56275L12.5066 6.87542C12.9578 7.41566 13.592 7.78404 14.2971 7.91531C15.0022 8.04658 15.7326 7.93226 16.3589 7.59261C16.9851 7.25295 17.4669 6.70989 17.7188 6.05961C17.9707 5.40933 17.9765 4.69382 17.7351 4.03981C17.4937 3.38581 17.0208 2.83553 16.4001 2.48645C15.7794 2.13738 15.051 2.01204 14.3438 2.13264C13.6367 2.25323 12.9966 2.61199 12.5368 3.14534C12.077 3.6787 11.8272 4.35223 11.8317 5.04663C11.8346 5.30959 11.8755 5.57086 11.9533 5.82284L7.50858 8.51016C7.11618 8.03243 6.57983 7.68459 5.97387 7.51485C5.36791 7.34511 4.72236 7.36189 4.12669 7.56285C3.53103 7.76381 3.01476 8.139 2.64946 8.63642C2.28415 9.13384 2.08789 9.72884 2.08789 10.339C2.08789 10.9491 2.28415 11.5441 2.64946 12.0415C3.01476 12.5389 3.53103 12.9141 4.12669 13.1151C4.72236 13.316 5.36791 13.3328 5.97387 13.1631C6.57983 12.9933 7.11618 12.6455 7.50858 12.1678L11.9533 14.8551C11.8755 15.1071 11.8346 15.3683 11.8317 15.6313C11.8317 16.2128 12.01 16.7813 12.3441 17.2648C12.6781 17.7483 13.1529 18.1251 13.7085 18.3477C14.264 18.5702 14.8753 18.6284 15.465 18.515C16.0547 18.4015 16.5964 18.1215 17.0216 17.7103C17.4468 17.2991 17.7363 16.7752 17.8536 16.2049C17.971 15.6345 17.9107 15.0434 17.6806 14.5061C17.4505 13.9689 17.0609 13.5097 16.5609 13.1866C16.061 12.8635 15.4732 12.6911 14.8719 12.6911ZM14.8719 3.28252C15.2327 3.28252 15.5853 3.38598 15.8853 3.57983C16.1853 3.77367 16.4191 4.04919 16.5571 4.37153C16.6952 4.69388 16.7313 5.04859 16.6609 5.39079C16.5906 5.73299 16.4168 6.04733 16.1617 6.29404C15.9066 6.54076 15.5816 6.70877 15.2278 6.77684C14.8739 6.84491 14.5071 6.80998 14.1738 6.67645C13.8405 6.54293 13.5556 6.31682 13.3552 6.02672C13.1548 5.73661 13.0478 5.39554 13.0478 5.04663C13.0478 4.57876 13.24 4.13005 13.582 3.79922C13.9241 3.46838 14.3881 3.28252 14.8719 3.28252ZM5.14332 12.1031C4.78255 12.1031 4.42987 11.9996 4.1299 11.8058C3.82993 11.6119 3.59613 11.3364 3.45807 11.0141C3.32 10.6917 3.28388 10.337 3.35426 9.9948C3.42465 9.65259 3.59838 9.33826 3.85348 9.09154C4.10859 8.84483 4.43361 8.67681 4.78746 8.60875C5.1413 8.54068 5.50806 8.57561 5.84138 8.70913C6.17469 8.84265 6.45957 9.06876 6.66001 9.35887C6.86045 9.64898 6.96743 9.99005 6.96743 10.339C6.96743 10.8068 6.77525 11.2555 6.43316 11.5864C6.09107 11.9172 5.6271 12.1031 5.14332 12.1031ZM14.8719 17.3954C14.5111 17.3954 14.1584 17.2919 13.8585 17.0981C13.5585 16.9042 13.3247 16.6287 13.1866 16.3064C13.0486 15.984 13.0124 15.6293 13.0828 15.2871C13.1532 14.9449 13.3269 14.6306 13.582 14.3839C13.8372 14.1372 14.1622 13.9691 14.516 13.9011C14.8699 13.833 15.2366 13.8679 15.5699 14.0015C15.9033 14.135 16.1881 14.3611 16.3886 14.6512C16.589 14.9413 16.696 15.2824 16.696 15.6313C16.696 16.0992 16.5038 16.5479 16.1617 16.8787C15.8196 17.2095 15.3557 17.3954 14.8719 17.3954Z" fill="#999999"/>
</g>
<defs>
<clipPath id="clip0_642_1514">
<rect width="17.1429" height="17.1429" fill="white" transform="translate(1.42847 1.42859)"/>
</clipPath>
</defs>
</svg>
