<svg width="20" height="20" viewBox="0 0 20 20" fill="none" xmlns="http://www.w3.org/2000/svg">
<g clip-path="url(#clip0_642_1517)">
<path d="M16.2856 4.43227H15.1428V2.08795H4.85704V4.43227H3.71418C3.10797 4.43227 2.52659 4.67926 2.09794 5.11891C1.66928 5.55855 1.42847 6.15484 1.42847 6.77659V13.2235H3.66847V12.1041H2.57132V6.77659C2.57132 6.46572 2.69173 6.16757 2.90606 5.94775C3.12039 5.72793 3.41108 5.60443 3.71418 5.60443H16.2856C16.5887 5.60443 16.8794 5.72793 17.0937 5.94775C17.3081 6.16757 17.4285 6.46572 17.4285 6.77659V12.0513H16.3313V13.2235H18.5713V6.77659C18.5713 6.15484 18.3305 5.55855 17.9019 5.11891C17.4732 4.67926 16.8918 4.43227 16.2856 4.43227ZM13.9999 4.43227H5.9999V3.26011H13.9999V4.43227Z" fill="#999999"/>
<path d="M15.7142 9.707H4.28561C4.13406 9.707 3.98872 9.76875 3.88155 9.87866C3.77439 9.98857 3.71419 10.1376 3.71419 10.2931C3.71419 10.4485 3.77439 10.5976 3.88155 10.7075C3.98872 10.8174 4.13406 10.8792 4.28561 10.8792H4.85704V17.9121H15.1428V10.8792H15.7142C15.8657 10.8792 16.0111 10.8174 16.1182 10.7075C16.2254 10.5976 16.2856 10.4485 16.2856 10.2931C16.2856 10.1376 16.2254 9.98857 16.1182 9.87866C16.0111 9.76875 15.8657 9.707 15.7142 9.707ZM13.9999 16.74H5.9999V10.8792H13.9999V16.74Z" fill="#999999"/>
<path d="M15.1428 6.80003H16.2856V7.97219H15.1428V6.80003Z" fill="#999999"/>
</g>
<defs>
<clipPath id="clip0_642_1517">
<rect width="17.1429" height="17.1429" fill="white" transform="translate(1.42847 1.42859)"/>
</clipPath>
</defs>
</svg>
