<svg width="30" height="30" viewBox="0 0 30 30" fill="none" xmlns="http://www.w3.org/2000/svg">
<g clip-path="url(#clip0_580_18181)">
<path d="M12.0779 19.1892V10.8111C12.0781 10.7062 12.1065 10.6034 12.1601 10.5133C12.2136 10.4232 12.2905 10.3492 12.3825 10.299C12.4745 10.2488 12.5784 10.2243 12.6831 10.228C12.7879 10.2317 12.8897 10.2635 12.9779 10.3202L19.4953 14.5081C19.5779 14.5609 19.6458 14.6337 19.6928 14.7197C19.7398 14.8057 19.7645 14.9021 19.7645 15.0002C19.7645 15.0982 19.7398 15.1946 19.6928 15.2806C19.6458 15.3666 19.5779 15.4394 19.4953 15.4922L12.9779 19.6813C12.8897 19.7379 12.7879 19.7698 12.6831 19.7735C12.5784 19.7772 12.4745 19.7527 12.3825 19.7025C12.2905 19.6523 12.2136 19.5783 12.1601 19.4882C12.1065 19.3981 12.0781 19.2941 12.0779 19.1892Z" fill="#458AF2"/>
<path fill-rule="evenodd" clip-rule="evenodd" d="M15 3.89607C12.0551 3.89607 9.23077 5.06594 7.14839 7.14832C5.066 9.23071 3.89613 12.055 3.89613 15C3.89613 17.9449 5.066 20.7692 7.14839 22.8516C9.23077 24.934 12.0551 26.1039 15 26.1039C17.945 26.1039 20.7693 24.934 22.8517 22.8516C24.934 20.7692 26.1039 17.9449 26.1039 15C26.1039 12.055 24.934 9.23071 22.8517 7.14832C20.7693 5.06594 17.945 3.89607 15 3.89607ZM2.14288 15C2.14288 7.89932 7.89938 2.14282 15 2.14282C22.1007 2.14282 27.8572 7.89932 27.8572 15C27.8572 22.1006 22.1007 27.8571 15 27.8571C7.89938 27.8571 2.14288 22.1006 2.14288 15Z" fill="#458AF2"/>
</g>
<defs>
<clipPath id="clip0_580_18181">
<rect width="25.7143" height="25.7143" fill="white" transform="translate(2.14288 2.14282)"/>
</clipPath>
</defs>
</svg>
