<svg width="30" height="30" viewBox="0 0 30 30" fill="none" xmlns="http://www.w3.org/2000/svg">
<g clip-path="url(#clip0_580_18171)">
<path d="M24.7344 9.05641L17.6563 2.29174C17.5566 2.19642 17.4213 2.14288 17.2803 2.14288H7.30654C6.0953 2.14288 5.10992 3.08462 5.10992 4.24221V25.7578C5.10992 26.9154 6.0953 27.8572 7.30654 27.8572H22.6935C23.9048 27.8572 24.8901 26.9154 24.8901 25.7578V9.41576C24.8901 9.28101 24.8341 9.15168 24.7344 9.05641ZM17.8121 3.87805L23.0746 8.90745H18.9451C18.3203 8.90745 17.8121 8.42169 17.8121 7.82454L17.8121 3.87805ZM23.8266 25.7578C23.8266 26.3549 23.3184 26.8408 22.6935 26.8408H7.30654C6.68176 26.8408 6.17344 26.3549 6.17344 25.7578V4.24221C6.17344 3.64511 6.68176 3.1593 7.30654 3.1593H16.7485V7.82464C16.7485 8.98223 17.7338 9.92397 18.9451 9.92397H23.8266V25.7578Z" fill="#458AF2"/>
<path d="M13.9822 12.2348L10.2187 14.4241H7.85152C7.62026 14.4241 7.43277 14.6033 7.43277 14.8244V20.8008C7.43277 21.0218 7.62026 21.201 7.85152 21.201H10.2187L13.9821 23.3904C14.8195 23.8775 15.8916 23.302 15.8916 22.3648V13.2604C15.8916 12.3235 14.8197 11.7475 13.9822 12.2348ZM8.27027 15.2246H9.91737V20.4006H8.27027V15.2246ZM15.0541 22.3648C15.0541 22.6769 14.6971 22.8693 14.4176 22.7066L10.7549 20.5759V15.0493L14.4176 12.9185C14.6966 12.7562 15.0541 12.9476 15.0541 13.2604V22.3648Z" fill="#458AF2"/>
<path d="M17.0831 16.775C16.9195 16.9313 16.9195 17.1847 17.0831 17.341C17.3558 17.6016 17.3559 18.0235 17.0831 18.2842C16.9195 18.4405 16.9195 18.6939 17.0831 18.8502C17.2466 19.0065 17.5117 19.0065 17.6753 18.8502C18.2739 18.2781 18.2739 17.3471 17.6753 16.775C17.5117 16.6187 17.2466 16.6187 17.0831 16.775Z" fill="#458AF2"/>
<path d="M18.9386 15.5675C18.7751 15.4112 18.5099 15.4112 18.3464 15.5675C18.1829 15.7238 18.1829 15.9772 18.3464 16.1334C19.3151 17.0593 19.3151 18.5658 18.3464 19.4916C18.1829 19.6479 18.1829 19.9013 18.3464 20.0576C18.5099 20.2139 18.7751 20.2139 18.9386 20.0576C20.2339 18.8197 20.2339 16.8054 18.9386 15.5675Z" fill="#458AF2"/>
<path d="M20.202 14.36C20.0385 14.2037 19.7733 14.2037 19.6098 14.36C19.4462 14.5163 19.4462 14.7697 19.6098 14.926C21.3034 16.5446 21.3034 19.0804 19.6098 20.699C19.4462 20.8553 19.4462 21.1087 19.6098 21.265C19.7733 21.4213 20.0384 21.4213 20.202 21.265C22.2336 19.3233 22.2357 16.3037 20.202 14.36Z" fill="#458AF2"/>
</g>
<defs>
<clipPath id="clip0_580_18171">
<rect width="25.7143" height="25.7143" fill="white" transform="translate(2.14288 2.14288)"/>
</clipPath>
</defs>
</svg>
