<svg width="56" height="56" viewBox="0 0 56 56" fill="none" xmlns="http://www.w3.org/2000/svg">
<path fill-rule="evenodd" clip-rule="evenodd" d="M28 49C33.5695 49 38.911 46.7875 42.8492 42.8492C46.7875 38.911 49 33.5695 49 28C49 22.4305 46.7875 17.089 42.8492 13.1508C38.911 9.21249 33.5695 7 28 7C22.4305 7 17.089 9.21249 13.1508 13.1508C9.21249 17.089 7 22.4305 7 28C7 33.5695 9.21249 38.911 13.1508 42.8492C17.089 46.7875 22.4305 49 28 49ZM28 52C34.3652 52 40.4697 49.4714 44.9706 44.9706C49.4714 40.4697 52 34.3652 52 28C52 21.6348 49.4714 15.5303 44.9706 11.0294C40.4697 6.52856 34.3652 4 28 4C21.6348 4 15.5303 6.52856 11.0294 11.0294C6.52856 15.5303 4 21.6348 4 28C4 34.3652 6.52856 40.4697 11.0294 44.9706C15.5303 49.4714 21.6348 52 28 52Z" fill="white"/>
<path d="M19.75 22.099H23.71C23.71 19.756 25.084 17.947 27.79 17.947C29.845 17.947 31.729 18.976 31.729 21.451C31.729 23.356 30.607 24.232 28.834 25.564C26.815 27.031 25.216 28.744 25.33 31.525L25.351 32.914H29.272V31.849C29.272 29.695 30.091 29.068 32.302 27.391C34.129 26.002 36.034 24.46 36.034 21.223C36.034 16.69 32.206 14.5 28.015 14.5C24.037 14.5 19.657 16.441 19.753 22.099H19.75ZM24.436 38.647C24.436 40.246 25.711 41.428 27.466 41.428C29.293 41.428 30.55 40.246 30.55 38.647C30.55 36.991 29.29 35.827 27.463 35.827C25.711 35.827 24.436 36.991 24.436 38.647Z" fill="white"/>
</svg>
