<svg width="24" height="24" viewBox="0 0 24 24" fill="none" xmlns="http://www.w3.org/2000/svg">
<g clip-path="url(#clip0_761_14375)">
<path d="M21.2577 4.97141H17.4863V2.57141H16.1148V4.97141L7.88627 4.97141V2.57141L6.51484 2.57141V4.97141H2.74341C2.47072 4.97173 2.20928 5.0802 2.01646 5.27302C1.82363 5.46585 1.71516 5.72729 1.71484 5.99998L1.71484 20.4C1.71516 20.6727 1.82363 20.9341 2.01646 21.1269C2.20928 21.3198 2.47072 21.4282 2.74341 21.4286L21.2577 21.4286C21.5304 21.4282 21.7918 21.3198 21.9847 21.1269C22.1775 20.9341 22.286 20.6727 22.2863 20.4L22.2863 5.99998C22.286 5.72729 22.1775 5.46585 21.9847 5.27302C21.7918 5.0802 21.5304 4.97173 21.2577 4.97141ZM20.9148 20.0571L3.08627 20.0571L3.08627 6.34284H6.51484V8.05712H7.88627V6.34284L16.1148 6.34284V8.05712H17.4863V6.34284H20.9148L20.9148 20.0571Z" fill="#575757"/>
<path d="M5.82913 10.4571H7.20056V11.8286H5.82913V10.4571Z" fill="#575757"/>
<path d="M9.60056 10.4571H10.972V11.8286H9.60056V10.4571Z" fill="#575757"/>
<path d="M13.0291 10.4571H14.4006V11.8286H13.0291V10.4571Z" fill="#575757"/>
<path d="M16.8006 10.4571H18.172V11.8286H16.8006V10.4571Z" fill="#575757"/>
<path d="M5.82913 13.5428H7.20056V14.9143H5.82913V13.5428Z" fill="#575757"/>
<path d="M9.60056 13.5428H10.972V14.9143H9.60056V13.5428Z" fill="#575757"/>
<path d="M13.0291 13.5428H14.4006V14.9143H13.0291V13.5428Z" fill="#575757"/>
<path d="M16.8006 13.5428H18.172V14.9143H16.8006V13.5428Z" fill="#575757"/>
<path d="M5.82913 16.6286H7.20056V18H5.82913V16.6286Z" fill="#575757"/>
<path d="M9.60056 16.6286H10.972V18H9.60056V16.6286Z" fill="#575757"/>
<path d="M13.0291 16.6286H14.4006V18H13.0291V16.6286Z" fill="#575757"/>
<path d="M16.8006 16.6286H18.172L18.172 18H16.8006V16.6286Z" fill="#575757"/>
</g>
<defs>
<clipPath id="clip0_761_14375">
<rect width="20.5714" height="20.5714" fill="white" transform="translate(1.71484 1.71423)"/>
</clipPath>
</defs>
</svg>
