<svg width="20" height="21" viewBox="0 0 20 21" fill="none" xmlns="http://www.w3.org/2000/svg">
<g clip-path="url(#clip0_471_14933)">
<path d="M18.2898 17.4379L15.0528 14.2103C16.0972 12.8798 16.6639 11.2367 16.6618 9.54517C16.6618 8.03875 16.2151 6.56616 15.3781 5.31361C14.5412 4.06107 13.3517 3.08483 11.9599 2.50835C10.5682 1.93187 9.03674 1.78104 7.55926 2.07492C6.08179 2.36881 4.72464 3.09422 3.65944 4.15942C2.59424 5.22462 1.86883 6.58177 1.57494 8.05924C1.28106 9.53672 1.43189 11.0682 2.00837 12.4599C2.58485 13.8517 3.56109 15.0412 4.81363 15.8781C6.06617 16.7151 7.53877 17.1618 9.04518 17.1618C10.7367 17.1639 12.3798 16.5972 13.7103 15.5528L16.9379 18.7898C17.0264 18.879 17.1317 18.9499 17.2477 18.9982C17.3637 19.0465 17.4882 19.0714 17.6139 19.0714C17.7395 19.0714 17.864 19.0465 17.98 18.9982C18.096 18.9499 18.2013 18.879 18.2898 18.7898C18.3791 18.7013 18.4499 18.596 18.4982 18.48C18.5466 18.364 18.5714 18.2395 18.5714 18.1138C18.5714 17.9881 18.5466 17.8637 18.4982 17.7477C18.4499 17.6317 18.3791 17.5264 18.2898 17.4379ZM3.33274 9.54517C3.33274 8.41535 3.66777 7.31091 4.29546 6.3715C4.92315 5.4321 5.81531 4.69992 6.85913 4.26756C7.90294 3.83519 9.05152 3.72207 10.1596 3.94248C11.2677 4.1629 12.2856 4.70696 13.0845 5.50586C13.8834 6.30476 14.4275 7.32262 14.6479 8.43072C14.8683 9.53883 14.7552 10.6874 14.3228 11.7312C13.8904 12.775 13.1583 13.6672 12.2188 14.2949C11.2794 14.9226 10.175 15.2576 9.04518 15.2576C7.53015 15.2576 6.07717 14.6558 5.00588 13.5845C3.93459 12.5132 3.33274 11.0602 3.33274 9.54517Z" fill="white"/>
</g>
<defs>
<clipPath id="clip0_471_14933">
<rect width="17.1429" height="17.1429" fill="white" transform="translate(1.42859 1.92857)"/>
</clipPath>
</defs>
</svg>
