<svg width="20" height="20" viewBox="0 0 20 20" fill="none" xmlns="http://www.w3.org/2000/svg">
<g clip-path="url(#clip0_702_10033)">
<path fill-rule="evenodd" clip-rule="evenodd" d="M3.14333 16.1482V8.74264H4.28609V16.1482C4.28609 16.2993 4.34629 16.4441 4.45344 16.551C4.5606 16.6578 4.70593 16.7178 4.85747 16.7178H15.1423C15.2939 16.7178 15.4392 16.6578 15.5463 16.551C15.6535 16.4441 15.7137 16.2993 15.7137 16.1482V8.74264H16.8565V16.1482C16.8565 16.6014 16.6759 17.0361 16.3544 17.3566C16.0329 17.6771 15.5969 17.8571 15.1423 17.8571H4.85747C4.40285 17.8571 3.96685 17.6771 3.64539 17.3566C3.32393 17.0361 3.14333 16.6014 3.14333 16.1482ZM15.7137 3.61574V7.60333L13.4282 5.32471V3.61574C13.4282 3.46466 13.4884 3.31976 13.5955 3.21293C13.7027 3.1061 13.848 3.04608 13.9996 3.04608H15.1423C15.2939 3.04608 15.4392 3.1061 15.5463 3.21293C15.6535 3.31976 15.7137 3.46466 15.7137 3.61574Z" fill="white"/>
<path fill-rule="evenodd" clip-rule="evenodd" d="M9.19196 2.47643C9.40626 2.26284 9.69688 2.14285 9.9999 2.14285C10.3029 2.14285 10.5935 2.26284 10.8078 2.47643L18.4038 10.0483C18.511 10.1553 18.5713 10.3003 18.5713 10.4516C18.5713 10.6029 18.511 10.748 18.4038 10.8549C18.2965 10.9619 18.151 11.022 17.9992 11.022C17.8475 11.022 17.702 10.9619 17.5947 10.8549L9.9999 3.28192L2.40511 10.8549C2.29782 10.9619 2.1523 11.022 2.00057 11.022C1.84884 11.022 1.70332 10.9619 1.59603 10.8549C1.48874 10.748 1.42847 10.6029 1.42847 10.4516C1.42847 10.3003 1.48874 10.1553 1.59603 10.0483L9.19196 2.47643Z" fill="white"/>
</g>
<defs>
<clipPath id="clip0_702_10033">
<rect width="17.1429" height="17.1429" fill="white" transform="translate(1.42847 1.42856)"/>
</clipPath>
</defs>
</svg>
