<svg width="24" height="24" viewBox="0 0 24 24" fill="none" xmlns="http://www.w3.org/2000/svg">
<rect x="4.20001" y="7.20001" width="16.8" height="10.2" fill="white"/>
<path d="M21 6.40002H12.6C12.2688 6.40002 12 6.67878 12 7.02225C12 7.36571 12.2688 7.64447 12.6 7.64447H19.2516L15.5652 10.6174L12.9216 8.87398L12.2784 9.92429L15.2784 11.903C15.3756 11.9677 15.4884 12 15.6 12C15.7296 12 15.8604 11.9565 15.9684 11.8694L20.4 8.29407V16.3556H12.6C12.2688 16.3556 12 16.6343 12 16.9778C12 17.3213 12.2688 17.6 12.6 17.6H21C21.3312 17.6 21.6 17.3213 21.6 16.9778V7.02225C21.6 6.67878 21.3312 6.40002 21 6.40002Z" fill="#006FC4"/>
<path d="M12.9358 2.54808C12.7996 2.42649 12.6168 2.37401 12.4448 2.41241L2.88745 4.33232C2.60431 4.38864 2.40002 4.65231 2.40002 4.96077V19.0401C2.40002 19.3473 2.60431 19.6123 2.88745 19.6686L12.4448 21.5885C12.4806 21.5962 12.5177 21.6 12.5547 21.6C12.6933 21.6 12.8283 21.5488 12.9358 21.4528C13.0732 21.3312 13.152 21.1495 13.152 20.9601V3.04086C13.152 2.85015 13.0732 2.66967 12.9358 2.54808Z" fill="#006DC3"/>
<path d="M7.80005 16.9064C6.14645 16.9064 4.80005 15.1314 4.80005 12.9503C4.80005 10.7692 6.14645 8.99426 7.80005 8.99426C9.45365 8.99426 10.8 10.7692 10.8 12.9503C10.8 15.1314 9.45365 16.9064 7.80005 16.9064ZM7.80005 10.3129C6.80765 10.3129 6.00005 11.4958 6.00005 12.9503C6.00005 14.4048 6.80765 15.5877 7.80005 15.5877C8.79245 15.5877 9.60005 14.4048 9.60005 12.9503C9.60005 11.4958 8.79245 10.3129 7.80005 10.3129Z" fill="#EFEFEF"/>
</svg>
