<svg width="20" height="16" viewBox="0 0 20 16" fill="none" xmlns="http://www.w3.org/2000/svg">
<path d="M17.2917 16H2.70833C2.01655 16 1.35098 15.746 0.848141 15.2899C0.345306 14.8338 0.0433322 14.2102 0.00416678 13.5472L1.41656e-08 13.4V1.8C-5.83516e-05 1.3439 0.180246 0.904783 0.504474 0.571397C0.828703 0.238012 1.27268 0.0352177 1.74667 0.00400011L1.875 1.3599e-08H14.7917C15.2668 -5.60175e-05 15.7242 0.173036 16.0715 0.484295C16.4187 0.795554 16.63 1.22177 16.6625 1.6768L16.6667 1.8V2.4H18.125C18.6001 2.39994 19.0575 2.57304 19.4048 2.8843C19.7521 3.19555 19.9633 3.62177 19.9958 4.0768L20 4.2V13.4C20 14.0641 19.7354 14.7031 19.2603 15.1858C18.7852 15.6685 18.1357 15.9584 17.445 15.996L17.2917 16ZM2.70833 14.8H17.2917C17.6578 14.8 18.0105 14.6677 18.2798 14.4296C18.549 14.1914 18.7151 13.8647 18.745 13.5144L18.75 13.4V4.2C18.75 4.05501 18.6953 3.91493 18.596 3.80566C18.4968 3.69638 18.3596 3.62532 18.21 3.6056L18.125 3.6H16.6667V12.2C16.6667 12.345 16.612 12.4851 16.5127 12.5943C16.4134 12.7036 16.2763 12.7747 16.1267 12.7944L16.0417 12.8C15.8906 12.8 15.7447 12.7475 15.6309 12.6522C15.5171 12.5569 15.443 12.4252 15.4225 12.2816L15.4167 12.2V1.8C15.4167 1.65501 15.362 1.51493 15.2627 1.40566C15.1634 1.29638 15.0263 1.22532 14.8767 1.2056L14.7917 1.2H1.875C1.72397 1.20001 1.57805 1.25251 1.46422 1.34781C1.3504 1.44311 1.27637 1.57476 1.25583 1.7184L1.25 1.8V13.4C1.25001 13.7514 1.38764 14.0899 1.63557 14.3483C1.88349 14.6068 2.22358 14.7663 2.58833 14.7952L2.70833 14.8ZM6.87167 7.2032C7.44667 7.2032 7.91333 7.6512 7.91333 8.2032V11C7.91333 11.552 7.44667 12 6.87167 12H3.95833C3.38333 12 2.91667 11.552 2.91667 11V8.2032C2.91667 7.6512 3.38333 7.2032 3.95833 7.2032H6.87167ZM10.2083 10.8H13.1217C13.28 10.8 13.4325 10.8578 13.5482 10.9616C13.6639 11.0654 13.7342 11.2074 13.745 11.3591C13.7558 11.5108 13.7062 11.6607 13.6063 11.7786C13.5064 11.8966 13.3635 11.9737 13.2067 11.9944L13.1217 12H10.2083C10.05 12 9.89755 11.9422 9.78184 11.8384C9.66613 11.7346 9.59577 11.5926 9.58498 11.4409C9.57418 11.2892 9.62376 11.1393 9.72369 11.0214C9.82362 10.9034 9.96646 10.8263 10.1233 10.8056L10.2083 10.8ZM6.66417 8.4032H4.16667V10.8H6.66417V8.4032ZM10.2083 7.2032H13.1217C13.28 7.20325 13.4325 7.261 13.5482 7.36478C13.6639 7.46856 13.7342 7.61064 13.745 7.7623C13.7558 7.91397 13.7062 8.06391 13.6063 8.18184C13.5064 8.29976 13.3635 8.37688 13.2067 8.3976L13.1217 8.4032H10.2083C10.0489 8.40476 9.89479 8.34772 9.77768 8.24378C9.66058 8.13984 9.58929 7.99685 9.57843 7.8441C9.56757 7.69135 9.61794 7.54038 9.71925 7.42213C9.82055 7.30387 9.96511 7.22727 10.1233 7.208L10.2083 7.2032ZM3.53833 3.5976H13.1217C13.28 3.59765 13.4325 3.6554 13.5482 3.75918C13.6639 3.86296 13.7342 4.00504 13.745 4.1567C13.7558 4.30837 13.7062 4.45831 13.6063 4.57624C13.5064 4.69416 13.3635 4.77128 13.2067 4.792L13.1217 4.7976H3.53833C3.38005 4.79735 3.22776 4.73946 3.11221 4.63561C2.99666 4.53177 2.92646 4.3897 2.91578 4.2381C2.90509 4.08649 2.95473 3.93664 3.05465 3.8188C3.15458 3.70096 3.29736 3.62391 3.45417 3.6032L3.53833 3.5976Z" fill="white"/>
</svg>
