<svg width="20" height="21" viewBox="0 0 20 21" fill="none" xmlns="http://www.w3.org/2000/svg">
<g clip-path="url(#clip0_471_14929)">
<path fill-rule="evenodd" clip-rule="evenodd" d="M15.8726 11.6974L17.4457 13.2488C17.6433 13.4458 17.7772 13.6955 17.8309 13.9668C17.8845 14.2381 17.8555 14.5189 17.7473 14.7741C17.6391 15.0293 17.4566 15.2475 17.2227 15.4015C16.9887 15.5555 16.7137 15.6385 16.4319 15.6401H13.4956V15.9315C13.4548 16.8016 13.0639 17.6204 12.4087 18.2084C11.7535 18.7964 10.8873 19.1056 9.99997 19.0684C9.11264 19.1056 8.24646 18.7964 7.59123 18.2084C6.936 17.6204 6.54515 16.8016 6.50433 15.9315V15.6401H3.56799C3.28623 15.6385 3.01118 15.5555 2.77723 15.4015C2.54329 15.2475 2.36082 15.0293 2.25265 14.7741C2.14448 14.5189 2.11539 14.2381 2.16904 13.9668C2.22268 13.6955 2.35667 13.4458 2.55426 13.2488L4.12729 11.6974V7.69482C4.12882 6.87339 4.30895 6.06173 4.65567 5.31399C5.00238 4.56625 5.5077 3.89962 6.13792 3.35859C6.76813 2.81756 7.50875 2.41457 8.31035 2.1765C9.11195 1.93844 9.9561 1.87077 10.7865 1.97802C12.0654 2.17027 13.2424 2.7624 14.1455 3.66003C13.5745 3.83557 13.0782 4.1874 12.7169 4.65368C12.1147 4.12307 11.3668 3.76937 10.5593 3.64078C9.97293 3.56573 9.37696 3.61653 8.81262 3.78968C8.24828 3.96283 7.72904 4.25418 7.29084 4.64357C6.84666 5.02374 6.49052 5.49269 6.24634 6.01896C6.00216 6.54522 5.87559 7.11663 5.87511 7.69482V11.6974C5.87529 11.9236 5.82983 12.1476 5.74134 12.3565C5.65284 12.5654 5.52307 12.755 5.3595 12.9145L4.32829 13.9259H15.6716L14.6317 12.9145C14.4697 12.7543 14.3415 12.5644 14.2546 12.3555C14.1676 12.1467 14.1235 11.923 14.1248 11.6974V9.2978C14.3939 9.3828 14.6798 9.42857 14.9762 9.42857C15.2892 9.42857 15.5905 9.37752 15.8726 9.28313V11.6974ZM11.1649 16.9868C11.4905 16.7218 11.6993 16.3437 11.7478 15.9315V15.6401H8.25215V15.9315C8.30061 16.3437 8.50939 16.7218 8.83498 16.9868C9.16057 17.2518 9.57788 17.3835 9.99997 17.3542C10.422 17.3835 10.8394 17.2518 11.1649 16.9868Z" fill="white"/>
<path d="M16.9841 6.64286C16.9841 7.82632 16.0069 8.78571 14.8016 8.78571C13.5962 8.78571 12.619 7.82632 12.619 6.64286C12.619 5.45939 13.5962 4.5 14.8016 4.5C16.0069 4.5 16.9841 5.45939 16.9841 6.64286Z" fill="white"/>
</g>
<defs>
<clipPath id="clip0_471_14929">
<rect width="17.1429" height="17.1429" fill="white" transform="translate(1.42859 1.92857)"/>
</clipPath>
</defs>
</svg>
