<svg width="28" height="28" viewBox="0 0 28 28" fill="" xmlns="http://www.w3.org/2000/svg">
<path d="M23.7477 4.76878H14.4431V2.46146C14.4431 2.33908 14.3964 2.2217 14.3133 2.13516C14.2302 2.04862 14.1175 2 14 2C13.8825 2 13.7698 2.04862 13.6867 2.13516C13.6036 2.2217 13.5569 2.33908 13.5569 2.46146V4.76878H4.2523C3.89988 4.76918 3.56201 4.91516 3.31281 5.1747C3.06361 5.43424 2.92345 5.78613 2.92307 6.15317V19.9971C2.92345 20.3641 3.06361 20.716 3.31281 20.9756C3.56201 21.2351 3.89988 21.3811 4.2523 21.3815H9.53355L6.56483 25.2463C6.52773 25.2936 6.49999 25.348 6.48322 25.4065C6.46645 25.4649 6.46099 25.5263 6.46713 25.587C6.47328 25.6476 6.49093 25.7065 6.51904 25.76C6.54716 25.8135 6.58519 25.8607 6.63094 25.8988C6.67668 25.937 6.72923 25.9653 6.78555 25.9821C6.84187 25.9989 6.90083 26.004 6.95902 25.9969C7.01722 25.9898 7.07349 25.9708 7.12459 25.941C7.17568 25.9111 7.22058 25.871 7.25669 25.8229L10.6684 21.3815H17.3317L20.7433 25.8229C20.8172 25.917 20.9237 25.9769 21.0397 25.9897C21.1558 26.0024 21.2719 25.967 21.3631 25.8911C21.4542 25.8151 21.5128 25.7048 21.5263 25.5841C21.5398 25.4634 21.5071 25.342 21.4352 25.2463L18.4665 21.3815H23.7477C24.1001 21.3811 24.438 21.2351 24.6872 20.9756C24.9364 20.716 25.0765 20.3641 25.0769 19.9971V6.15317C25.0765 5.78613 24.9364 5.43424 24.6872 5.1747C24.438 4.91516 24.1001 4.76918 23.7477 4.76878ZM24.1908 19.9971C24.1906 20.1194 24.1439 20.2367 24.0609 20.3232C23.9778 20.4098 23.8652 20.4584 23.7477 20.4585H4.2523C4.13482 20.4584 4.02219 20.4098 3.93912 20.3232C3.85606 20.2367 3.80934 20.1194 3.80922 19.9971V6.15317C3.80934 6.03082 3.85606 5.91352 3.93912 5.827C4.02219 5.74049 4.13482 5.69183 4.2523 5.69171H23.7477C23.8652 5.69183 23.9778 5.74049 24.0609 5.827C24.1439 5.91352 24.1906 6.03082 24.1908 6.15317V19.9971ZM10.8984 13.5366V16.3054C10.8984 16.4278 10.8518 16.5451 10.7687 16.6317C10.6856 16.7182 10.5729 16.7668 10.4554 16.7668C10.3379 16.7668 10.2252 16.7182 10.1421 16.6317C10.059 16.5451 10.0123 16.4278 10.0123 16.3054V13.5366C10.0123 13.4142 10.059 13.2968 10.1421 13.2103C10.2252 13.1237 10.3379 13.0751 10.4554 13.0751C10.5729 13.0751 10.6856 13.1237 10.7687 13.2103C10.8518 13.2968 10.8984 13.4142 10.8984 13.5366ZM14.4431 11.6907V16.3054C14.4431 16.4278 14.3964 16.5451 14.3133 16.6317C14.2302 16.7182 14.1175 16.7668 14 16.7668C13.8825 16.7668 13.7698 16.7182 13.6867 16.6317C13.6036 16.5451 13.5569 16.4278 13.5569 16.3054V11.6907C13.5569 11.5683 13.6036 11.451 13.6867 11.3644C13.7698 11.2779 13.8825 11.2293 14 11.2293C14.1175 11.2293 14.2302 11.2779 14.3133 11.3644C14.3964 11.451 14.4431 11.5683 14.4431 11.6907ZM17.9877 9.84488V16.3054C17.9877 16.4278 17.941 16.5451 17.8579 16.6317C17.7748 16.7182 17.6621 16.7668 17.5446 16.7668C17.4271 16.7668 17.3144 16.7182 17.2313 16.6317C17.1482 16.5451 17.1015 16.4278 17.1015 16.3054V9.84488C17.1015 9.72249 17.1482 9.60512 17.2313 9.51858C17.3144 9.43203 17.4271 9.38342 17.5446 9.38342C17.6621 9.38342 17.7748 9.43203 17.8579 9.51858C17.941 9.60512 17.9877 9.72249 17.9877 9.84488Z" fill="#458AF2"/>
</svg>
