<svg width="40" height="40" viewBox="0 0 40 40" fill="none" xmlns="http://www.w3.org/2000/svg">
<g clip-path="url(#clip0_710_18566)">
<path d="M8.27047 8.13184H31.7291C33.1649 8.13184 34.5418 8.63199 35.5571 9.52227C36.5723 10.4126 37.1426 11.62 37.1426 12.8791V27.1208C37.1426 28.3799 36.5723 29.5874 35.5571 30.4777C34.5418 31.3679 33.1649 31.8681 31.7291 31.8681H8.27047C6.83471 31.8681 5.45776 31.3679 4.44252 30.4777C3.42729 29.5874 2.85693 28.3799 2.85693 27.1208V12.8791C2.85693 11.62 3.42729 10.4126 4.44252 9.52227C5.45776 8.63199 6.83471 8.13184 8.27047 8.13184ZM8.27047 9.71425C7.38987 9.71425 6.58144 9.99118 5.95528 10.4517L19.9998 18.4492L34.0443 10.4517C33.3957 9.97442 32.5758 9.71328 31.7291 9.71425H8.27047ZM19.9998 20.3354L4.90325 11.7397C4.74317 12.1032 4.66118 12.4895 4.66144 12.8791V27.1208C4.66144 27.9602 5.04168 28.7652 5.7185 29.3587C6.39533 29.9522 7.31329 30.2857 8.27047 30.2857H31.7291C32.6863 30.2857 33.6043 29.9522 34.2811 29.3587C34.9579 28.7652 35.3381 27.9602 35.3381 27.1208V12.8791C35.3381 12.4772 35.2533 12.0926 35.0963 11.7397L19.9998 20.3339V20.3354Z" fill="white"/>
</g>
<defs>
<clipPath id="clip0_710_18566">
<rect width="34.2857" height="34.2857" fill="white" transform="translate(2.85693 2.85712)"/>
</clipPath>
</defs>
</svg>
