<svg width="12" height="12" viewBox="0 0 12 12" fill="none" xmlns="http://www.w3.org/2000/svg">
<g clip-path="url(#clip0_4621_5022)">
<path d="M6 0C4.162 0 2.66667 1.41663 2.66667 3.15789C2.66667 4.89916 4.162 6.31579 6 6.31579C7.838 6.31579 9.33333 4.89916 9.33333 3.15789C9.33333 1.41663 7.838 0 6 0ZM6 5.05263C4.89733 5.05263 4 4.20253 4 3.15789C4 2.11326 4.89733 1.26316 6 1.26316C7.10267 1.26316 8 2.11326 8 3.15789C8 4.20253 7.10267 5.05263 6 5.05263ZM12 12V11.3684C12 8.93116 9.906 6.94737 7.33333 6.94737H4.66667C2.09333 6.94737 0 8.93116 0 11.3684V12H1.33333V11.3684C1.33333 9.62716 2.82867 8.21053 4.66667 8.21053H7.33333C9.17133 8.21053 10.6667 9.62716 10.6667 11.3684V12H12Z" fill="#FAFAFA"/>
</g>
<defs>
<clipPath id="clip0_4621_5022">
<rect width="12" height="12" fill="white"/>
</clipPath>
</defs>
</svg>
