<svg width="24" height="24" viewBox="0 0 24 24" fill="none" xmlns="http://www.w3.org/2000/svg">
<path d="M6.40493 10.3673L4.06812 12.7043C3.10979 13.6627 2.57141 14.9626 2.57141 16.318C2.57141 17.6734 3.10979 18.9733 4.06812 19.9317C5.02644 20.8901 6.32621 21.4286 7.68148 21.4286C9.03676 21.4286 10.3365 20.8901 11.2949 19.9317L14.4083 16.8163C14.9862 16.2382 15.417 15.53 15.6646 14.751C15.9122 13.972 15.9693 13.145 15.8311 12.3394C15.693 11.5337 15.3636 10.773 14.8706 10.121C14.3777 9.46902 13.7355 8.94482 12.9981 8.5924L12 9.59057C11.8987 9.69209 11.8105 9.80598 11.7377 9.92954C12.3075 10.0934 12.8246 10.403 13.238 10.828C13.6515 11.2529 13.9468 11.7784 14.0949 12.3525C14.243 12.9266 14.2388 13.5295 14.0826 14.1014C13.9263 14.6734 13.6235 15.1946 13.2042 15.6137L10.0924 18.7274C9.4532 19.3667 8.58628 19.7258 7.68234 19.7258C6.77839 19.7258 5.91147 19.3667 5.27229 18.7274C4.6331 18.0882 4.27401 17.2212 4.27401 16.3172C4.27401 15.4131 4.6331 14.5461 5.27229 13.9069L6.62294 12.5578C6.43237 11.8437 6.35875 11.105 6.40493 10.3673Z" fill="#4D4D4D"/>
<path d="M9.59164 7.18201C9.01375 7.76003 8.58294 8.46827 8.33536 9.24726C8.08779 10.0263 8.03069 10.8533 8.16884 11.6589C8.30699 12.4645 8.63638 13.2253 9.12934 13.8773C9.6223 14.5292 10.2645 15.0534 11.0019 15.4059L12.3219 14.0841C11.7444 13.9291 11.2179 13.625 10.7952 13.2021C10.3725 12.7792 10.0686 12.2524 9.91391 11.6748C9.75925 11.0973 9.75933 10.4891 9.91413 9.91156C10.0689 9.33401 10.373 8.80738 10.7958 8.38458L13.9076 5.27083C14.5468 4.63159 15.4137 4.27246 16.3176 4.27246C17.2216 4.27246 18.0885 4.63159 18.7277 5.27083C19.3669 5.91007 19.726 6.77707 19.726 7.68109C19.726 8.58512 19.3669 9.45212 18.7277 10.0914L17.377 11.4404C17.5678 12.1558 17.641 12.8968 17.595 13.6327L19.9318 11.2956C20.8902 10.3372 21.4286 9.03734 21.4286 7.68195C21.4286 6.32655 20.8902 5.02666 19.9318 4.06825C18.9735 3.10984 17.6738 2.57141 16.3185 2.57141C14.9632 2.57141 13.6634 3.10984 12.7051 4.06825L9.59164 7.18201Z" fill="#4D4D4D"/>
</svg>
