<svg width="20" height="20" viewBox="0 0 20 20" fill="none" xmlns="http://www.w3.org/2000/svg">
<g clip-path="url(#clip0_642_1520)">
<path d="M16.486 5.10466L12.823 1.53322C12.7543 1.46626 12.6613 1.42859 12.564 1.42859H4.87167C4.0636 1.42859 3.40649 2.06927 3.40649 2.85717V17.1429C3.40649 17.9308 4.0636 18.5714 4.87171 18.5714H15.1281C15.9362 18.5714 16.5933 17.9308 16.5933 17.1429V5.35715C16.5933 5.26229 16.5547 5.17162 16.486 5.10466ZM12.9303 2.64791L15.3427 5.00003H13.6629C13.259 5.00003 12.9303 4.6795 12.9303 4.28575V2.64791ZM15.8607 17.1429C15.8607 17.5366 15.532 17.8571 15.1281 17.8571H4.87171C4.46786 17.8571 4.13912 17.5366 4.13912 17.1429V2.85717C4.13912 2.46342 4.46786 2.1429 4.87171 2.1429H12.1977V4.28575C12.1977 5.07362 12.8548 5.7143 13.6629 5.7143H15.8607V17.1429Z" fill="#999999"/>
<path d="M11.8675 11.913C11.5284 11.6528 11.2061 11.3853 10.9915 11.176C10.7125 10.904 10.4638 10.6403 10.2478 10.3892C10.5848 9.37394 10.7325 8.85044 10.7325 8.5714C10.7325 7.38594 10.2932 7.14282 9.63362 7.14282C9.13246 7.14282 8.53472 7.39672 8.53472 8.60559C8.53472 9.13852 8.83414 9.7855 9.42758 10.5374C9.28235 10.9696 9.11171 11.468 8.91999 12.0298C8.82768 12.2994 8.72754 12.5491 8.62164 12.78C8.53544 12.8174 8.45172 12.8554 8.37088 12.8948C8.07971 13.0367 7.8032 13.1644 7.54671 13.283C6.37696 13.8229 5.6043 14.18 5.6043 14.8852C5.6043 15.3972 6.17487 15.7142 6.7032 15.7142C7.38428 15.7142 8.41271 14.8273 9.16391 13.3332C9.94372 13.0332 10.9132 12.811 11.6783 12.6719C12.2914 13.1316 12.9686 13.5714 13.2966 13.5714C14.2048 13.5714 14.3955 13.0594 14.3955 12.63C14.3955 11.7857 13.406 11.7857 12.9303 11.7857C12.7826 11.7857 12.3862 11.8282 11.8675 11.913ZM6.7032 15C6.49393 15 6.35227 14.9037 6.33689 14.8852C6.33689 14.632 7.11134 14.2742 7.86041 13.9282C7.90797 13.9062 7.95629 13.8842 8.00529 13.8616C7.45512 14.6394 6.91103 15 6.7032 15ZM9.26731 8.60559C9.26731 7.85713 9.50557 7.85713 9.63362 7.85713C9.89262 7.85713 9.99993 7.85713 9.99993 8.5714C9.99993 8.72207 9.89691 9.09875 9.70838 9.68679C9.42074 9.25501 9.26731 8.88496 9.26731 8.60559ZM9.54811 12.4442C9.57102 12.3821 9.5932 12.3193 9.61467 12.2558C9.75059 11.8582 9.87294 11.5011 9.98204 11.1795C10.1341 11.3428 10.2979 11.5098 10.4736 11.6811C10.5422 11.748 10.7125 11.8987 10.9393 12.0874C10.4878 12.1833 10.0074 12.3022 9.54811 12.4442ZM13.6629 12.6301C13.6629 12.7905 13.6629 12.8571 13.3231 12.8592C13.2233 12.8383 12.9926 12.7058 12.7078 12.5167C12.8112 12.5056 12.8874 12.5 12.9303 12.5C13.4715 12.5 13.625 12.5516 13.6629 12.6301Z" fill="#999999"/>
</g>
<defs>
<clipPath id="clip0_642_1520">
<rect width="17.1429" height="17.1429" fill="white" transform="translate(1.42847 1.42859)"/>
</clipPath>
</defs>
</svg>
