<svg width="20" height="21" viewBox="0 0 20 21" fill="none" xmlns="http://www.w3.org/2000/svg">
<g clip-path="url(#clip0_471_14925)">
<path d="M2.74731 18.4121V17.4231C2.74731 15.587 3.51144 13.826 4.87159 12.5277C6.23175 11.2294 8.07651 10.5 10.0001 10.5M10.0001 10.5C11.9236 10.5 13.7684 11.2294 15.1285 12.5277C16.4887 13.826 17.2528 15.587 17.2528 17.4231V18.4121M10.0001 10.5C11.0992 10.5 12.1534 10.0832 12.9306 9.3413C13.7078 8.5994 14.1445 7.59316 14.1445 6.54395C14.1445 5.49475 13.7078 4.48851 12.9306 3.74661C12.1534 3.00471 11.0992 2.58791 10.0001 2.58791C8.90089 2.58791 7.84674 3.00471 7.06951 3.74661C6.29228 4.48851 5.85563 5.49475 5.85563 6.54395C5.85563 7.59316 6.29228 8.5994 7.06951 9.3413C7.84674 10.0832 8.90089 10.5 10.0001 10.5Z" stroke="white" stroke-width="1.5" stroke-linecap="round" stroke-linejoin="round"/>
</g>
<defs>
<clipPath id="clip0_471_14925">
<rect width="17.1429" height="17.1429" fill="white" transform="translate(1.42859 1.92857)"/>
</clipPath>
</defs>
</svg>
