<svg width="16" height="16" viewBox="0 0 16 16" fill="none" xmlns="http://www.w3.org/2000/svg">
<g clip-path="url(#clip0_471_13279)">
<path d="M9.00768 7.98448L14.6923 2.31512C14.8046 2.18429 14.8633 2.016 14.8566 1.84389C14.85 1.67177 14.7784 1.5085 14.6563 1.38671C14.5342 1.26491 14.3705 1.19356 14.1979 1.18691C14.0253 1.18026 13.8566 1.23881 13.7254 1.35085L8.04083 7.02021L2.35625 1.34401C2.22713 1.21523 2.052 1.14288 1.8694 1.14288C1.68679 1.14288 1.51166 1.21523 1.38254 1.34401C1.25342 1.47278 1.18088 1.64744 1.18088 1.82956C1.18088 2.01168 1.25342 2.18634 1.38254 2.31512L7.07397 7.98448L1.38254 13.6539C1.31076 13.7152 1.25246 13.7906 1.2113 13.8755C1.17014 13.9603 1.14701 14.0527 1.14336 14.1469C1.13972 14.2411 1.15563 14.335 1.1901 14.4228C1.22458 14.5105 1.27687 14.5902 1.34369 14.6569C1.41052 14.7235 1.49044 14.7757 1.57843 14.81C1.66643 14.8444 1.7606 14.8603 1.85503 14.8567C1.94947 14.853 2.04213 14.83 2.1272 14.7889C2.21228 14.7479 2.28792 14.6897 2.3494 14.6181L8.04083 8.94876L13.7254 14.6181C13.8566 14.7302 14.0253 14.7887 14.1979 14.7821C14.3705 14.7754 14.5342 14.7041 14.6563 14.5823C14.7784 14.4605 14.85 14.2972 14.8566 14.1251C14.8633 13.953 14.8046 13.7847 14.6923 13.6539L9.00768 7.98448Z" fill="white"/>
</g>
<defs>
<clipPath id="clip0_471_13279">
<rect width="13.7143" height="13.7143" fill="white" transform="translate(1.14285 1.14288)"/>
</clipPath>
</defs>
</svg>
