<svg width="30" height="30" viewBox="0 0 30 30" fill="none" xmlns="http://www.w3.org/2000/svg">
<g clip-path="url(#clip0_580_18156)">
<path d="M22.6133 14.9741C22.8259 14.9741 22.9983 14.8054 22.9983 14.5974C22.9983 14.3894 22.8259 14.2207 22.6133 14.2207H22.1753V10.5715C22.1753 10.1418 21.818 9.79221 21.3787 9.79221H19.7326C19.2934 9.79221 18.9361 10.1418 18.9361 10.5715V14.2207H18.06V12.5844C18.06 12.1547 17.7027 11.8052 17.2635 11.8052H15.6174C15.1781 11.8052 14.8208 12.1547 14.8208 12.5844V14.2207H13.9447V10.1689C13.9447 9.96086 13.7723 9.79221 13.5597 9.79221C13.347 9.79221 13.1747 9.96086 13.1747 10.1689V14.2207H11.4755V7.75331C11.4755 7.73899 11.4874 7.72739 11.502 7.72739H13.1481C13.1627 7.72739 13.1746 7.73899 13.1746 7.75331V8.55853C13.1746 8.76656 13.347 8.93521 13.5596 8.93521C13.7723 8.93521 13.9447 8.76656 13.9447 8.55853V7.75331C13.9447 7.3236 13.5874 6.97404 13.1481 6.97404H11.502C11.0628 6.97404 10.7055 7.3236 10.7055 7.75331V14.2207H9.82943V10.9741C9.82943 10.5444 9.47212 10.1948 9.03287 10.1948H7.38677C6.94753 10.1948 6.59021 10.5444 6.59021 10.9741V14.2207H6.1522C5.93956 14.2207 5.76717 14.3894 5.76717 14.5974C5.76717 14.8054 5.93956 14.9741 6.1522 14.9741H22.6133ZM19.7061 10.5715C19.7061 10.5572 19.7179 10.5456 19.7326 10.5456H21.3787C21.3933 10.5456 21.4051 10.5572 21.4051 10.5715V14.2207H19.706L19.7061 10.5715ZM15.5908 12.5844C15.5908 12.5701 15.6026 12.5585 15.6173 12.5585H17.2634C17.278 12.5585 17.2898 12.5701 17.2898 12.5844V14.2207H15.5907L15.5908 12.5844ZM7.36018 10.9741C7.36018 10.9598 7.37204 10.9481 7.38667 10.9481H9.03277C9.0474 10.9481 9.05926 10.9598 9.05926 10.9741V14.2207H7.36013L7.36018 10.9741Z" fill="#458AF2"/>
<path d="M20.1441 25.4934H4.91747C4.90284 25.4934 4.89098 25.4818 4.89098 25.4675V2.92215C4.89098 2.90783 4.90284 2.89623 4.91747 2.89623H19.2213C19.264 2.89623 19.306 2.9003 19.3475 2.90633V6.54554C19.3475 6.97525 19.7048 7.32481 20.1441 7.32481H23.8641C23.8702 7.36539 23.8743 7.40647 23.8743 7.44825V22.6493C23.8743 22.8574 24.0467 23.026 24.2594 23.026C24.472 23.026 24.6444 22.8574 24.6444 22.6493V7.4482C24.6444 7.02497 24.4759 6.62711 24.17 6.32783L20.3665 2.60695C20.0606 2.30767 19.6539 2.14288 19.2213 2.14288H4.91747C4.47822 2.14288 4.12091 2.49244 4.12091 2.92215V25.4675C4.12091 25.8972 4.47822 26.2467 4.91747 26.2467H20.1441C20.3568 26.2467 20.5292 26.0781 20.5292 25.8701C20.5292 25.662 20.3568 25.4934 20.1441 25.4934ZM23.3301 6.57141H20.1441C20.1295 6.57141 20.1176 6.55981 20.1176 6.54549V3.4288L23.3301 6.57141Z" fill="#458AF2"/>
<path d="M25.5252 25.8397L22.6447 23.0217C22.4166 22.7983 22.1132 22.6753 21.7903 22.6753C21.6005 22.6753 21.4176 22.7181 21.2526 22.7985L20.5316 22.0932C21.0443 21.4747 21.3523 20.6877 21.3523 19.8312C21.3523 17.8475 19.7026 16.2338 17.675 16.2338C15.6473 16.2338 13.9977 17.8476 13.9977 19.8312C13.9977 21.8148 15.6474 23.4286 17.675 23.4286C18.5504 23.4286 19.355 23.1274 19.9872 22.6258L20.7082 23.3312C20.626 23.4926 20.5823 23.6716 20.5823 23.8571C20.5823 24.1729 20.708 24.4697 20.9362 24.6928L23.8167 27.5108C24.0447 27.7341 24.3482 27.8572 24.6711 27.8572C24.994 27.8572 25.2974 27.7342 25.5252 27.511C25.7534 27.2878 25.8792 26.991 25.8792 26.6753C25.8792 26.3595 25.7533 26.0627 25.5252 25.8397ZM14.7677 19.8312C14.7677 18.263 16.0719 16.9871 17.6749 16.9871C19.278 16.9871 20.5822 18.263 20.5822 19.8312C20.5822 21.3994 19.278 22.6753 17.6749 22.6753C16.0719 22.6753 14.7677 21.3994 14.7677 19.8312ZM21.3522 23.8571C21.3522 23.7427 21.3978 23.6352 21.4807 23.554C21.5633 23.4731 21.6732 23.4286 21.7902 23.4286C21.9073 23.4286 22.0172 23.4731 22.0999 23.5541L22.4707 23.9169L21.8513 24.5228L21.4805 24.1599C21.3978 24.0791 21.3522 23.9716 21.3522 23.8571ZM24.9805 26.9784C24.8979 27.0593 24.788 27.1038 24.671 27.1038C24.5539 27.1038 24.4441 27.0593 24.3613 26.9783L22.3959 25.0555L23.0152 24.4496L24.9807 26.3724C25.0634 26.4533 25.109 26.5609 25.109 26.6753C25.109 26.7897 25.0634 26.8973 24.9805 26.9784Z" fill="#458AF2"/>
<path d="M7.38665 16.9871H8.20971C8.42235 16.9871 8.59474 16.8184 8.59474 16.6104C8.59474 16.4024 8.42235 16.2337 8.20971 16.2337H7.38665C7.17401 16.2337 7.00162 16.4024 7.00162 16.6104C7.00162 16.8184 7.17401 16.9871 7.38665 16.9871Z" fill="#458AF2"/>
<path d="M7.38665 18.5975H8.20971C8.42235 18.5975 8.59474 18.4289 8.59474 18.2208C8.59474 18.0128 8.42235 17.8442 8.20971 17.8442H7.38665C7.17401 17.8442 7.00162 18.0128 7.00162 18.2208C7.00162 18.4289 7.17401 18.5975 7.38665 18.5975Z" fill="#458AF2"/>
<path d="M13.9446 16.6104C13.9446 16.4024 13.7722 16.2337 13.5596 16.2337H9.85583C9.64319 16.2337 9.4708 16.4024 9.4708 16.6104C9.4708 16.8184 9.64319 16.9871 9.85583 16.9871H13.5596C13.7722 16.9871 13.9446 16.8185 13.9446 16.6104Z" fill="#458AF2"/>
<path d="M13.1216 18.2208C13.1216 18.0128 12.9492 17.8442 12.7366 17.8442H9.85583C9.64319 17.8442 9.4708 18.0128 9.4708 18.2208C9.4708 18.4289 9.64319 18.5975 9.85583 18.5975H12.7366C12.9492 18.5975 13.1216 18.4289 13.1216 18.2208Z" fill="#458AF2"/>
<path d="M7.38665 21.8181H11.0904C11.3031 21.8181 11.4755 21.6495 11.4755 21.4414C11.4755 21.2334 11.3031 21.0648 11.0904 21.0648H7.38665C7.17401 21.0648 7.00162 21.2334 7.00162 21.4414C7.00162 21.6495 7.17401 21.8181 7.38665 21.8181Z" fill="#458AF2"/>
<path d="M7.38665 20.2077H8.20971C8.42235 20.2077 8.59474 20.0391 8.59474 19.8311C8.59474 19.623 8.42235 19.4544 8.20971 19.4544H7.38665C7.17401 19.4544 7.00162 19.623 7.00162 19.8311C7.00162 20.0391 7.17401 20.2077 7.38665 20.2077Z" fill="#458AF2"/>
<path d="M12.7101 19.8311C12.7101 19.623 12.5377 19.4544 12.325 19.4544H9.85583C9.64319 19.4544 9.4708 19.623 9.4708 19.8311C9.4708 20.0391 9.64319 20.2077 9.85583 20.2077H12.325C12.5377 20.2077 12.7101 20.0391 12.7101 19.8311Z" fill="#458AF2"/>
<path d="M12.7366 6.11696C12.9492 6.11696 13.1216 5.94831 13.1216 5.74028C13.1216 5.53226 12.9492 5.36361 12.7366 5.36361H11.9135C11.7009 5.36361 11.5285 5.53226 11.5285 5.74028C11.5285 5.94831 11.7009 6.11696 11.9135 6.11696H12.7366Z" fill="#458AF2"/>
<path d="M16.8519 10.9482C17.0645 10.9482 17.2369 10.7795 17.2369 10.5715C17.2369 10.3635 17.0645 10.1948 16.8519 10.1948H16.0288C15.8162 10.1948 15.6438 10.3635 15.6438 10.5715C15.6438 10.7795 15.8162 10.9482 16.0288 10.9482H16.8519Z" fill="#458AF2"/>
<path d="M8.62124 9.33767C8.83389 9.33767 9.00628 9.16902 9.00628 8.961C9.00628 8.75297 8.83389 8.58432 8.62124 8.58432H7.79819C7.58555 8.58432 7.41316 8.75297 7.41316 8.961C7.41316 9.16902 7.58555 9.33767 7.79819 9.33767H8.62124Z" fill="#458AF2"/>
<path d="M20.9672 8.93524C21.1798 8.93524 21.3522 8.76658 21.3522 8.55856C21.3522 8.35053 21.1798 8.18188 20.9672 8.18188H20.1441C19.9315 8.18188 19.7591 8.35053 19.7591 8.55856C19.7591 8.76658 19.9315 8.93524 20.1441 8.93524H20.9672Z" fill="#458AF2"/>
</g>
<defs>
<clipPath id="clip0_580_18156">
<rect width="25.7143" height="25.7143" fill="white" transform="translate(2.14288 2.14288)"/>
</clipPath>
</defs>
</svg>
