<svg width="16" height="16" viewBox="0 0 16 16" fill="none" xmlns="http://www.w3.org/2000/svg">
<g clip-path="url(#clip0_38_9042)">
<path d="M14.3674 13.8022L1.63268 13.8022C1.50278 13.8022 1.3782 13.8578 1.28634 13.9567C1.19449 14.0557 1.14288 14.1898 1.14288 14.3297C1.14288 14.4696 1.19449 14.6038 1.28634 14.7027C1.3782 14.8016 1.50278 14.8572 1.63268 14.8572L14.3674 14.8572C14.4973 14.8572 14.6219 14.8016 14.7137 14.7027C14.8056 14.6038 14.8572 14.4696 14.8572 14.3297C14.8572 14.1898 14.8056 14.0557 14.7137 13.9567C14.6219 13.8578 14.4973 13.8022 14.3674 13.8022Z" fill="#404040"/>
<path d="M8.02398 13.2747L13.1584 8.44262C13.2376 8.35549 13.2791 8.24342 13.2744 8.1288C13.2697 8.01418 13.2192 7.90545 13.133 7.82434C13.0468 7.74323 12.9313 7.69571 12.8095 7.69129C12.6877 7.68686 12.5686 7.72585 12.476 7.80046L8.5079 11.5304V2.12578C8.5079 2.00499 8.45692 1.88915 8.36616 1.80374C8.27541 1.71833 8.15232 1.67035 8.02398 1.67035C7.89564 1.67035 7.77255 1.71833 7.6818 1.80374C7.59105 1.88915 7.54006 2.00499 7.54006 2.12578L7.54006 11.5304L3.57676 7.80046C3.53338 7.75278 3.47999 7.71406 3.41995 7.68672C3.35992 7.65939 3.29452 7.64403 3.22788 7.6416C3.16123 7.63918 3.09478 7.64975 3.03268 7.67265C2.97058 7.69554 2.91418 7.73027 2.86702 7.77466C2.81986 7.81904 2.78295 7.87212 2.75863 7.93056C2.7343 7.98901 2.72307 8.05155 2.72564 8.11427C2.72822 8.177 2.74454 8.23854 2.77358 8.29504C2.80263 8.35155 2.84377 8.40179 2.89443 8.44262L8.02398 13.2747Z" fill="#404040"/>
</g>
<defs>
<clipPath id="clip0_38_9042">
<rect width="13.7143" height="13.7143" fill="white" transform="translate(1.14288 1.14288)"/>
</clipPath>
</defs>
</svg>
