<svg width="30" height="30" viewBox="0 0 30 30" fill="none" xmlns="http://www.w3.org/2000/svg">
<g clip-path="url(#clip0_580_18166)">
<path d="M26.4355 6.04332L22.8395 2.48902C22.6137 2.26583 22.3134 2.14288 21.994 2.14288H6.8538C6.19453 2.14288 5.65811 2.67309 5.65811 3.32474V15.0259H4.81729C3.93337 15.0259 3.21429 15.7367 3.21429 16.6104V23.8571C3.21429 24.7308 3.93337 25.4416 4.81729 25.4416H17.4439C18.1032 25.4416 18.6396 24.9114 18.6396 24.2597V18.6234C18.6396 17.9717 18.1032 17.4415 17.4439 17.4415H4.81729C4.35363 17.4415 3.97646 17.0687 3.97646 16.6104C3.97646 16.1521 4.35363 15.7793 4.81729 15.7793H5.65811V16.208C5.65811 16.416 5.82874 16.5847 6.0392 16.5847C6.24966 16.5847 6.42028 16.416 6.42028 16.208V3.32474C6.42028 3.08844 6.61479 2.89623 6.8538 2.89623H21.5432V6.5455C21.5432 6.97521 21.8968 7.32481 22.3316 7.32481H26.0236V26.6753C26.0236 26.9116 25.829 27.1038 25.59 27.1038H6.8538C6.61473 27.1038 6.42028 26.9116 6.42028 26.6753C6.42028 26.4673 6.24966 26.2986 6.0392 26.2986C5.82874 26.2986 5.65811 26.4673 5.65811 26.6753C5.65811 27.327 6.19453 27.8572 6.8538 27.8572H25.59C26.2494 27.8572 26.7857 27.327 26.7857 26.6753V6.87903C26.7858 6.56338 26.6614 6.26656 26.4355 6.04332ZM4.81729 18.1949H17.4439C17.6829 18.1949 17.8774 18.3871 17.8774 18.6234V24.2598C17.8774 24.4961 17.6829 24.6883 17.4439 24.6883H4.81729C4.35363 24.6883 3.97646 24.3154 3.97646 23.8571V17.9589C4.22102 18.1085 4.50912 18.1949 4.81729 18.1949ZM22.3053 6.5455V3.02646L25.892 6.57147H22.3316C22.3171 6.57147 22.3053 6.55981 22.3053 6.5455Z" fill="#458AF2"/>
<path d="M14.0129 23.4168C14.2233 23.4168 14.3939 23.2482 14.3939 23.0402V21.788H15.2197C15.4301 21.788 15.6007 21.6193 15.6007 21.4113C15.6007 21.2033 15.4301 21.0346 15.2197 21.0346H14.3939V20.2196H15.3238C15.5343 20.2196 15.7049 20.051 15.7049 19.843C15.7049 19.6349 15.5343 19.4663 15.3238 19.4663H14.0129C13.8024 19.4663 13.6318 19.6349 13.6318 19.843V23.0401C13.6318 23.2481 13.8024 23.4168 14.0129 23.4168Z" fill="#458AF2"/>
<path d="M10.0073 23.2715C10.0787 23.3415 10.1752 23.3808 10.2758 23.3808H10.2772C10.3043 23.3807 10.9427 23.3783 11.1977 23.3739C12.1394 23.3576 12.8229 22.5449 12.8229 21.4414C12.8229 20.2814 12.1566 19.502 11.1649 19.502H10.2694C10.1681 19.502 10.0711 19.5417 9.99966 19.6126C9.92816 19.6834 9.88807 19.7793 9.88828 19.8793V22.9533C9.88828 22.9792 9.89092 23.0045 9.89595 23.0289C9.90205 23.1202 9.94117 23.2066 10.0073 23.2715ZM11.1649 20.2553C11.8255 20.2553 12.0608 20.868 12.0608 21.4414C12.0608 22.2456 11.6206 22.6131 11.1844 22.6206C11.0632 22.6227 10.8469 22.6244 10.6555 22.6255C10.6543 22.256 10.6518 20.6397 10.6511 20.2553H11.1649Z" fill="#458AF2"/>
<path d="M6.84202 23.4288C7.05248 23.4288 7.22311 23.2602 7.22311 23.0521V22.0278C7.41233 22.0268 7.62746 22.0258 7.74931 22.0258C8.47642 22.0258 9.06797 21.4492 9.06797 20.7403C9.06797 20.0314 8.47642 19.4546 7.74931 19.4546H6.84202C6.74075 19.4546 6.64365 19.4945 6.57211 19.5654C6.50087 19.636 6.46098 19.7317 6.46098 19.8313L6.46093 23.0521C6.46093 23.2602 6.63156 23.4288 6.84202 23.4288ZM7.74931 20.208C8.05098 20.208 8.3058 20.4518 8.3058 20.7403C8.3058 21.0288 8.05098 21.2725 7.74931 21.2725C7.62828 21.2725 7.41583 21.2735 7.22732 21.2744C7.22631 21.082 7.22478 20.4094 7.22422 20.2081L7.74931 20.208Z" fill="#458AF2"/>
<path d="M13.9812 13.0646C13.0446 13.3568 12.0833 13.7613 11.5705 14.2845C11.1474 14.7161 11.0707 15.217 11.3601 15.6586C11.5565 15.9582 11.8264 16.1149 12.13 16.1149C12.2465 16.1149 12.368 16.0918 12.4921 16.0449C12.9399 15.8756 13.4235 15.3941 13.9706 14.5728C14.1472 14.3077 14.326 14.0131 14.504 13.6943C14.5688 13.6755 14.6349 13.6567 14.7024 13.638C15.7779 13.3406 16.9946 13.1248 18.0625 13.0346C18.7134 13.6567 19.3863 14.1415 19.9599 14.2737C20.5909 14.4192 21.0912 14.134 21.2978 13.5107C21.423 13.1332 21.2789 12.7772 20.9123 12.5585C20.5354 12.3335 19.8803 12.2249 18.9659 12.2353C18.7711 12.2375 18.5656 12.2453 18.3516 12.2584C17.9408 11.8396 17.5134 11.3392 17.1018 10.7865C16.7829 10.3583 16.4978 9.92986 16.2568 9.5226C16.283 9.43335 16.3079 9.34531 16.3315 9.25882C16.5921 8.30393 16.685 7.57283 16.6077 7.08577C16.4961 6.38239 16.0368 6.2825 15.8445 6.27225C15.1898 6.23725 14.7488 6.56375 14.6649 7.14558C14.5983 7.60779 14.7555 8.24371 15.1323 9.03563C15.2219 9.22387 15.3223 9.41788 15.4326 9.61601C15.3915 9.74639 15.347 9.88205 15.2987 10.0232C14.9474 11.0505 14.4716 12.1451 13.9812 13.0646ZM12.1511 15.3595C12.1239 15.3629 12.0781 15.3686 11.9997 15.249C11.936 15.1517 11.9325 15.0782 11.9869 14.978C12.1142 14.7435 12.5486 14.4146 13.3891 14.0748C12.8025 14.9742 12.364 15.3333 12.1511 15.3595ZM20.5799 13.2505C20.5793 13.2552 20.5778 13.2635 20.5736 13.2762C20.4784 13.5633 20.3505 13.5903 20.133 13.5402C19.8674 13.4789 19.5302 13.285 19.154 12.9882C20.1726 12.9963 20.528 13.1777 20.5799 13.2505ZM15.4194 7.25196C15.435 7.14428 15.4524 7.02319 15.7423 7.02319C15.7606 7.02319 15.7799 7.02369 15.8004 7.02465C15.8871 7.12916 15.9318 7.59418 15.731 8.51447C15.4945 7.97833 15.3789 7.53295 15.4194 7.25196ZM15.9501 10.4664C16.1174 10.7205 16.2973 10.9771 16.488 11.2331C16.7616 11.6005 17.0706 11.9818 17.3975 12.3458C17.0193 12.3909 16.6293 12.4492 16.2391 12.5192C15.9751 12.5665 15.5148 12.6559 14.976 12.7887C15.0955 12.5438 15.2133 12.2899 15.3286 12.0288C15.5578 11.5101 15.7686 10.9793 15.9501 10.4664Z" fill="#458AF2"/>
</g>
<defs>
<clipPath id="clip0_580_18166">
<rect width="25.7143" height="25.7143" fill="white" transform="translate(2.14288 2.14288)"/>
</clipPath>
</defs>
</svg>
