<svg width="30" height="30" viewBox="0 0 30 30" fill="none" xmlns="http://www.w3.org/2000/svg">
<g clip-path="url(#clip0_580_18176)">
<path d="M26.5155 6.04332L22.8944 2.48902C22.6669 2.26583 22.3646 2.14288 22.043 2.14288H6.79685C6.13297 2.14288 5.5928 2.67309 5.5928 3.32474V15.0259H4.7461C3.85601 15.0259 3.1319 15.7367 3.1319 16.6104V23.8571C3.1319 24.7308 3.85601 25.4416 4.7461 25.4416H17.461C18.1249 25.4416 18.665 24.9114 18.665 24.2597V18.6234C18.665 17.9717 18.1249 17.4415 17.461 17.4415H4.7461C4.2792 17.4415 3.8994 17.0687 3.8994 16.6104C3.8994 16.1521 4.2792 15.7793 4.7461 15.7793H5.5928V16.208C5.5928 16.416 5.76462 16.5847 5.97655 16.5847C6.18848 16.5847 6.3603 16.416 6.3603 16.208V3.32474C6.3603 3.08844 6.55617 2.89623 6.79685 2.89623H21.5889V6.5455C21.5889 6.97521 21.9451 7.32481 22.3829 7.32481H26.1007V26.6753C26.1007 26.9116 25.9048 27.1038 25.6641 27.1038H6.79685C6.55612 27.1038 6.3603 26.9116 6.3603 26.6753C6.3603 26.4673 6.18848 26.2986 5.97655 26.2986C5.76462 26.2986 5.5928 26.4673 5.5928 26.6753C5.5928 27.327 6.13297 27.8572 6.79685 27.8572H25.6641C26.328 27.8572 26.8682 27.327 26.8682 26.6753V6.87903C26.8682 6.56338 26.743 6.26656 26.5155 6.04332ZM4.7461 18.1949H17.461C17.7017 18.1949 17.8975 18.3871 17.8975 18.6234V24.2598C17.8975 24.4961 17.7017 24.6883 17.461 24.6883H4.7461C4.2792 24.6883 3.8994 24.3154 3.8994 23.8571V17.9589C4.14566 18.1085 4.43577 18.1949 4.7461 18.1949ZM22.3564 6.5455V3.02646L25.9681 6.57147H22.3829C22.3683 6.57147 22.3564 6.55981 22.3564 6.5455Z" fill="#458AF2"/>
<path d="M10.489 23.4205C10.5164 23.4251 10.5386 23.4289 10.9055 23.4289C11.0826 23.4289 11.34 23.428 11.717 23.4259C11.9289 23.4248 12.0998 23.2552 12.0986 23.0471C12.0974 22.839 11.9237 22.6732 11.7127 22.6725C11.4447 22.674 11.1569 22.6751 10.9376 22.6753V19.7976C10.9376 19.5896 10.7658 19.4209 10.5539 19.4209C10.3419 19.4209 10.1701 19.5896 10.1701 19.7976V23.0492C10.1701 23.2327 10.3048 23.3895 10.489 23.4205Z" fill="#458AF2"/>
<path d="M14.3827 23.4287C15.0665 23.4287 15.6405 23.0015 15.7476 22.4129C15.8279 21.9711 15.6221 21.3935 14.8034 21.0971C14.391 20.9478 14.0075 20.7851 13.8952 20.7368C13.7894 20.656 13.7928 20.542 13.7997 20.4948C13.8089 20.4316 13.8552 20.2774 14.0849 20.2095C14.5684 20.0665 15.0133 20.4123 15.0256 20.422C15.1878 20.5542 15.4286 20.5333 15.5645 20.3746C15.7008 20.2153 15.6799 19.9777 15.5176 19.8439C15.4869 19.8185 14.7537 19.225 13.8635 19.4882C13.4174 19.62 13.1018 19.9648 13.04 20.3877C12.982 20.7839 13.1569 21.1649 13.4964 21.3821C13.5134 21.393 13.5311 21.4025 13.5496 21.4106C13.5688 21.419 14.0245 21.6181 14.5377 21.8039C14.6903 21.8591 15.0401 22.0162 14.992 22.2805C14.9567 22.4745 14.7191 22.6753 14.3826 22.6753C14.0446 22.6753 13.7189 22.5412 13.5116 22.3166C13.3693 22.1625 13.1266 22.1507 12.9696 22.2905C12.8125 22.4301 12.8006 22.6683 12.9429 22.8225C13.2934 23.2021 13.8316 23.4287 14.3827 23.4287Z" fill="#458AF2"/>
<path d="M6.15743 23.3599C6.22461 23.4064 6.30172 23.4287 6.37811 23.4287C6.49871 23.4287 6.61742 23.373 6.69217 23.2688L7.62898 21.9635L8.56436 23.2686C8.63906 23.3729 8.75787 23.4287 8.87857 23.4287C8.95486 23.4287 9.03191 23.4064 9.09904 23.3601C9.2724 23.2403 9.31405 23.0054 9.19212 22.8352L8.09854 21.3094L9.02782 20.0146C9.1499 19.8445 9.10836 19.6095 8.93511 19.4897C8.76186 19.3699 8.52245 19.4107 8.40037 19.5807L7.62944 20.6549L6.85974 19.5809C6.73781 19.4107 6.49841 19.3699 6.32505 19.4895C6.1517 19.6092 6.11005 19.8442 6.23198 20.0143L7.15989 21.309L6.06472 22.835C5.94264 23.0051 5.98418 23.2401 6.15743 23.3599Z" fill="#458AF2"/>
<path d="M21.5361 9.36372C21.5361 8.93401 21.18 8.58441 20.7423 8.58441H11.7188C11.281 8.58441 10.9249 8.93401 10.9249 9.36372V14.5974C10.9249 15.0271 11.281 15.3767 11.7188 15.3767H20.7422C21.18 15.3767 21.5361 15.0271 21.5361 14.5974L21.5361 9.36372ZM14.9736 12.6104V11.3507H17.4874V12.6104H14.9736ZM17.4874 13.3637V14.6234H14.9736V13.3637H17.4874ZM11.6924 11.3508H14.2061V12.6104H11.6924V11.3508ZM14.9736 10.5975V9.33781H17.4874V10.5975H14.9736ZM18.2549 11.3508H20.7687V12.6104H18.2549V11.3508ZM20.7687 9.36372V10.5974H18.2549V9.33776H20.7423C20.7568 9.33781 20.7687 9.34941 20.7687 9.36372ZM11.7188 9.33781H14.2061V10.5975H11.6924V9.36377C11.6924 9.34941 11.7042 9.33781 11.7188 9.33781ZM11.6924 14.5975V13.3638H14.2061V14.6234H11.7188C11.7042 14.6234 11.6924 14.6118 11.6924 14.5975ZM20.7423 14.6234H18.2549V13.3637H20.7687V14.5974C20.7687 14.6118 20.7568 14.6234 20.7423 14.6234Z" fill="#458AF2"/>
</g>
<defs>
<clipPath id="clip0_580_18176">
<rect width="25.7143" height="25.7143" fill="white" transform="translate(2.14288 2.14288)"/>
</clipPath>
</defs>
</svg>
