<svg width="24" height="24" viewBox="0 0 24 24" fill="none" xmlns="http://www.w3.org/2000/svg">
<g clip-path="url(#clip0_2912_20776)">
<path d="M3.39129 13.2343C3.60873 13.2343 3.81727 13.1476 3.97103 12.9933C4.12478 12.839 4.21116 12.6297 4.21116 12.4114V3.36002H13.2298V8.29716C13.2298 8.5154 13.3162 8.72469 13.4699 8.87901C13.6237 9.03332 13.8322 9.12002 14.0497 9.12002H18.9689V12.4114C18.9689 12.6297 19.0553 12.839 19.2091 12.9933C19.3628 13.1476 19.5714 13.2343 19.7888 13.2343C20.0062 13.2343 20.2148 13.1476 20.3685 12.9933C20.5223 12.839 20.6087 12.6297 20.6087 12.4114V8.29716C20.6103 8.18768 20.5893 8.07906 20.5469 7.97814C20.5046 7.87723 20.4419 7.78623 20.3627 7.71088L14.6338 1.95088C14.4776 1.79806 14.2678 1.71307 14.0497 1.71431H4.21116C3.77627 1.71431 3.3592 1.88769 3.05168 2.19633C2.74417 2.50496 2.57141 2.92355 2.57141 3.36002V12.4114C2.57141 12.6297 2.65779 12.839 2.81155 12.9933C2.9653 13.1476 3.17384 13.2343 3.39129 13.2343ZM14.8695 4.52231L17.8109 7.4743H14.8695V4.52231ZM5.03104 15.7029H3.39129C3.17384 15.7029 2.9653 15.7896 2.81155 15.9439C2.65779 16.0982 2.57141 16.3075 2.57141 16.5257V21.4629C2.57141 21.6811 2.65779 21.8904 2.81155 22.0447C2.9653 22.199 3.17384 22.2857 3.39129 22.2857C3.60873 22.2857 3.81727 22.199 3.97103 22.0447C4.12478 21.8904 4.21116 21.6811 4.21116 21.4629V20.64H5.03104C5.68337 20.64 6.30899 20.3799 6.77026 19.917C7.23153 19.454 7.49067 18.8261 7.49067 18.1714C7.49067 17.5167 7.23153 16.8888 6.77026 16.4259C6.30899 15.9629 5.68337 15.7029 5.03104 15.7029ZM5.03104 18.9943H4.21116V17.3486H5.03104C5.24848 17.3486 5.45702 17.4353 5.61078 17.5896C5.76453 17.7439 5.85091 17.9532 5.85091 18.1714C5.85091 18.3897 5.76453 18.599 5.61078 18.7533C5.45702 18.9076 5.24848 18.9943 5.03104 18.9943ZM18.559 17.3486V18.5829H20.1987C20.4162 18.5829 20.6247 18.6696 20.7785 18.8239C20.9322 18.9782 21.0186 19.1875 21.0186 19.4057C21.0186 19.624 20.9322 19.8333 20.7785 19.9876C20.6247 20.1419 20.4162 20.2286 20.1987 20.2286H18.559V21.4629C18.559 21.6811 18.4726 21.8904 18.3189 22.0447C18.1651 22.199 17.9566 22.2857 17.7391 22.2857C17.5217 22.2857 17.3131 22.199 17.1594 22.0447C17.0056 21.8904 16.9192 21.6811 16.9192 21.4629V16.5257C16.9192 16.3075 17.0056 16.0982 17.1594 15.9439C17.3131 15.7896 17.5217 15.7029 17.7391 15.7029H20.6087C20.8261 15.7029 21.0347 15.7896 21.1884 15.9439C21.3422 16.0982 21.4286 16.3075 21.4286 16.5257C21.4286 16.744 21.3422 16.9533 21.1884 17.1076C21.0347 17.2619 20.8261 17.3486 20.6087 17.3486H18.559ZM11.59 15.7029H10.1553C9.93782 15.7029 9.72928 15.7896 9.57552 15.9439C9.42177 16.0982 9.33539 16.3075 9.33539 16.5257V21.4629C9.33539 21.6811 9.42177 21.8904 9.57552 22.0447C9.72928 22.199 9.93782 22.2857 10.1553 22.2857H11.59C12.4598 22.2857 13.294 21.9389 13.909 21.3217C14.524 20.7044 14.8695 19.8672 14.8695 18.9943C14.8695 18.1214 14.524 17.2842 13.909 16.6669C13.294 16.0496 12.4598 15.7029 11.59 15.7029ZM11.59 20.64H10.9751V17.3486H11.59C12.0249 17.3486 12.442 17.522 12.7495 17.8306C13.057 18.1392 13.2298 18.5578 13.2298 18.9943C13.2298 19.4308 13.057 19.8494 12.7495 20.158C12.442 20.4666 12.0249 20.64 11.59 20.64Z" fill="#222222"/>
</g>
<defs>
<clipPath id="clip0_2912_20776">
<rect width="20.5714" height="20.5714" fill="white" transform="translate(1.71429 1.71429)"/>
</clipPath>
</defs>
</svg>
