<svg width="25" height="24" viewBox="0 0 25 24" fill="none" xmlns="http://www.w3.org/2000/svg">
<g clip-path="url(#clip0_157_17100)">
<path d="M12.2018 16.3539C12.2224 16.3818 12.2487 16.4044 12.2787 16.42C12.3087 16.4355 12.3417 16.4436 12.3751 16.4436C12.4085 16.4436 12.4414 16.4355 12.4714 16.42C12.5015 16.4044 12.5278 16.3818 12.5483 16.3539L15.6285 12.2133C15.7413 12.0614 15.6395 11.8364 15.4553 11.8364H13.4174V1.94806C13.4174 1.81949 13.3184 1.71429 13.1974 1.71429H11.5473C11.4263 1.71429 11.3272 1.81949 11.3272 1.94806V11.8334H9.29486C9.11059 11.8334 9.00884 12.0584 9.12159 12.2104L12.2018 16.3539ZM22.4408 15.3312H20.7907C20.6696 15.3312 20.5706 15.4364 20.5706 15.5649V20.0649H4.1795V15.5649C4.1795 15.4364 4.08049 15.3312 3.95949 15.3312H2.30937C2.18836 15.3312 2.08936 15.4364 2.08936 15.5649V21.3507C2.08936 21.8679 2.48263 22.2857 2.96942 22.2857H21.7807C22.2675 22.2857 22.6608 21.8679 22.6608 21.3507V15.5649C22.6608 15.4364 22.5618 15.3312 22.4408 15.3312Z" fill="#1358BF"/>
</g>
<defs>
<clipPath id="clip0_157_17100">
<rect width="20.5714" height="20.5714" fill="white" transform="translate(2.08936 1.71429)"/>
</clipPath>
</defs>
</svg>
