<svg width="16" height="16" viewBox="0 0 16 16" fill="none" xmlns="http://www.w3.org/2000/svg">
<g clip-path="url(#clip0_776_11429)">
<path d="M14.3083 1.14288H1.69115C1.38772 1.14288 1.14258 1.38803 1.14258 1.69145V14.3086C1.14258 14.612 1.38772 14.8572 1.69115 14.8572H14.3083C14.6117 14.8572 14.8569 14.612 14.8569 14.3086V1.69145C14.8569 1.38803 14.6117 1.14288 14.3083 1.14288ZM5.21058 12.8292H3.17572V6.28403H5.21058V12.8292ZM4.19401 5.38917C3.96074 5.38917 3.73271 5.32 3.53875 5.1904C3.34479 5.0608 3.19362 4.8766 3.10436 4.66109C3.01509 4.44558 2.99173 4.20843 3.03724 3.97965C3.08275 3.75086 3.19508 3.5407 3.36002 3.37576C3.52497 3.21081 3.73512 3.09848 3.96391 3.05297C4.1927 3.00747 4.42984 3.03082 4.64535 3.12009C4.86087 3.20936 5.04507 3.36053 5.17467 3.55449C5.30426 3.74844 5.37344 3.97647 5.37344 4.20974C5.37172 4.86117 4.84372 5.38917 4.19401 5.38917ZM12.8289 12.8292H10.7957V9.64574C10.7957 8.88631 10.782 7.91088 9.73801 7.91088C8.68029 7.91088 8.51744 8.73717 8.51744 9.59088V12.8292H6.48601V6.28403H8.43686V7.17888H8.46429C8.73515 6.6646 9.39858 6.12117 10.3894 6.12117C12.45 6.12117 12.8289 7.47717 12.8289 9.23945V12.8292Z" fill="#1B232C"/>
</g>
<defs>
<clipPath id="clip0_776_11429">
<rect width="13.7143" height="13.7143" fill="white" transform="translate(1.14258 1.14288)"/>
</clipPath>
</defs>
</svg>
