<svg width="41" height="40" viewBox="0 0 41 40" fill="none" xmlns="http://www.w3.org/2000/svg">
<g clip-path="url(#clip0_710_18561)">
<path d="M37.476 14.5604C37.4754 14.0797 37.2585 13.6188 36.8728 13.2789C36.4871 12.939 35.9642 12.7478 35.4188 12.7472H29.2476V7.30769C29.247 6.82696 29.0301 6.36607 28.6444 6.02615C28.2587 5.68622 27.7358 5.49503 27.1904 5.49451H5.24757C4.70217 5.49503 4.17927 5.68622 3.7936 6.02615C3.40794 6.36607 3.19102 6.82696 3.19043 7.30769V26.6483C3.19041 26.7624 3.22705 26.8742 3.29611 26.9707C3.36517 27.0673 3.46383 27.1446 3.58067 27.1938C3.69751 27.243 3.82775 27.262 3.95634 27.2486C4.08493 27.2353 4.2066 27.1901 4.30729 27.1184L10.9042 22.4177H11.4188L11.419 27.8572C11.4196 28.338 11.6365 28.7988 12.0222 29.1388C12.4078 29.4787 12.9307 29.6699 13.4761 29.6704H29.7622L36.3593 34.3711C36.46 34.4428 36.5816 34.488 36.7102 34.5013C36.8388 34.5147 36.969 34.4957 37.0858 34.4465C37.2027 34.3974 37.3013 34.3201 37.3704 34.2236C37.4395 34.1271 37.4761 34.0153 37.4761 33.9012L37.476 14.5604ZM10.6616 21.2087C10.5047 21.2088 10.3525 21.2563 10.2305 21.3432L4.56186 25.3825V7.30769C4.56204 7.14744 4.63434 6.99381 4.7629 6.88049C4.89146 6.76718 5.06577 6.70345 5.24757 6.70329H27.1904C27.3722 6.70345 27.5465 6.76718 27.6751 6.88049C27.8037 6.99381 27.876 7.14744 27.8761 7.30769V13.3501L27.876 13.3516L27.8761 13.3531V20.6044C27.876 20.7646 27.8037 20.9182 27.6751 21.0315C27.5465 21.1449 27.3722 21.2086 27.1904 21.2087H10.6616ZM30.4359 28.596C30.3139 28.509 30.1617 28.4615 30.0048 28.4615H13.4761C13.2943 28.4613 13.12 28.3976 12.9915 28.2843C12.8629 28.171 12.7906 28.0173 12.7904 27.8571L12.7903 22.4175H27.1904C27.7358 22.417 28.2587 22.2258 28.6444 21.8859C29.0301 21.546 29.247 21.0851 29.2476 20.6044V13.956H35.4188C35.6006 13.9562 35.7749 14.0199 35.9035 14.1332C36.0321 14.2465 36.1044 14.4002 36.1045 14.5604L36.1047 32.6353L30.4359 28.596Z" fill="white"/>
</g>
<defs>
<clipPath id="clip0_710_18561">
<rect width="34.2857" height="34.2857" fill="white" transform="translate(3.19043 2.85712)"/>
</clipPath>
</defs>
</svg>
