<svg width="32" height="32" viewBox="0 0 32 32" fill="none" xmlns="http://www.w3.org/2000/svg">
<g clip-path="url(#clip0_642_12043)">
<path d="M26.382 9.66013L18.832 2.44449C18.7256 2.34281 18.5814 2.28571 18.4309 2.28571H7.79227C6.50028 2.28571 5.44922 3.29022 5.44922 4.52499V27.475C5.44922 28.7098 6.50028 29.7143 7.79227 29.7143H24.2051C25.4971 29.7143 26.5481 28.7098 26.5481 27.475V10.0434C26.5481 9.89971 26.4884 9.76176 26.382 9.66013ZM18.9982 4.13654L24.6116 9.50124H20.2067C19.5403 9.50124 18.9982 8.9831 18.9982 8.34613L18.9982 4.13654ZM25.4137 27.475C25.4137 28.1119 24.8715 28.6301 24.2051 28.6301H7.79227C7.12585 28.6301 6.58364 28.1119 6.58364 27.475V4.52499C6.58364 3.88808 7.12585 3.36988 7.79227 3.36988H17.8637V8.34624C17.8637 9.58101 18.9147 10.5855 20.2067 10.5855H25.4137V27.475Z" fill="#458AF2"/>
<path d="M16.7332 13.0983C16.631 13.0177 16.4955 12.9843 16.3646 13.0074L9.1897 14.2931C8.97714 14.3308 8.82378 14.5074 8.82378 14.714V24.1426C8.82378 24.3483 8.97714 24.5257 9.1897 24.5634L16.3646 25.8491C16.3915 25.8543 16.4202 25.8568 16.4471 25.8568C16.5502 25.8568 16.6525 25.8226 16.7332 25.7583C16.8363 25.6768 16.8955 25.5551 16.8955 25.4283V13.4283C16.8955 13.3006 16.8363 13.1797 16.7332 13.0983ZM15.9987 24.9114L9.72064 23.7868V15.0697L15.9987 13.9451V24.9114Z" fill="#458AF2"/>
<path d="M22.7251 14.714H16.4471C16.1996 14.714 15.9987 14.906 15.9987 15.1426C15.9987 15.3792 16.1996 15.5712 16.4471 15.5712H22.2767V23.2855H16.4471C16.1996 23.2855 15.9987 23.4775 15.9987 23.714C15.9987 23.9506 16.1996 24.1426 16.4471 24.1426H22.7251C22.9727 24.1426 23.1736 23.9506 23.1736 23.714V15.1426C23.1736 14.906 22.9727 14.714 22.7251 14.714Z" fill="#458AF2"/>
<path d="M18.2408 16.4283H16.4471C16.1996 16.4283 15.9987 16.6203 15.9987 16.8569C15.9987 17.0935 16.1996 17.2855 16.4471 17.2855H18.2408C18.4884 17.2855 18.6893 17.0935 18.6893 16.8569C18.6893 16.6203 18.4884 16.4283 18.2408 16.4283Z" fill="#458AF2"/>
<path d="M18.2408 18.1426H16.4471C16.1996 18.1426 15.9987 18.3346 15.9987 18.5712C15.9987 18.8078 16.1996 18.9998 16.4471 18.9998H18.2408C18.4884 18.9998 18.6893 18.8078 18.6893 18.5712C18.6893 18.3346 18.4884 18.1426 18.2408 18.1426Z" fill="#458AF2"/>
<path d="M18.2408 19.8569H16.4471C16.1996 19.8569 15.9987 20.0489 15.9987 20.2854C15.9987 20.522 16.1996 20.714 16.4471 20.714H18.2408C18.4884 20.714 18.6893 20.522 18.6893 20.2854C18.6893 20.0489 18.4884 19.8569 18.2408 19.8569Z" fill="#458AF2"/>
<path d="M18.2408 21.5711H16.4471C16.1996 21.5711 15.9987 21.7631 15.9987 21.9997C15.9987 22.2363 16.1996 22.4283 16.4471 22.4283H18.2408C18.4884 22.4283 18.6893 22.2363 18.6893 21.9997C18.6893 21.7631 18.4884 21.5711 18.2408 21.5711Z" fill="#458AF2"/>
<path d="M20.9314 16.4283H20.0346C19.787 16.4283 19.5861 16.6203 19.5861 16.8569C19.5861 17.0935 19.787 17.2855 20.0346 17.2855H20.9314C21.1789 17.2855 21.3798 17.0935 21.3798 16.8569C21.3798 16.6203 21.1789 16.4283 20.9314 16.4283Z" fill="#458AF2"/>
<path d="M20.9314 18.1426H20.0346C19.787 18.1426 19.5861 18.3346 19.5861 18.5712C19.5861 18.8078 19.787 18.9998 20.0346 18.9998H20.9314C21.1789 18.9998 21.3798 18.8078 21.3798 18.5712C21.3798 18.3346 21.1789 18.1426 20.9314 18.1426Z" fill="#458AF2"/>
<path d="M20.9314 19.8569H20.0346C19.787 19.8569 19.5861 20.0489 19.5861 20.2854C19.5861 20.522 19.787 20.714 20.0346 20.714H20.9314C21.1789 20.714 21.3798 20.522 21.3798 20.2854C21.3798 20.0489 21.1789 19.8569 20.9314 19.8569Z" fill="#458AF2"/>
<path d="M20.9314 21.5711H20.0346C19.787 21.5711 19.5861 21.7631 19.5861 21.9997C19.5861 22.2363 19.787 22.4283 20.0346 22.4283H20.9314C21.1789 22.4283 21.3798 22.2363 21.3798 21.9997C21.3798 21.7631 21.1789 21.5711 20.9314 21.5711Z" fill="#458AF2"/>
<path d="M14.9915 20.8606L11.8525 17.432C11.6875 17.2529 11.405 17.2357 11.2193 17.3917C11.0328 17.5477 11.0139 17.8186 11.1772 17.996L14.3162 21.4246C14.405 21.5214 14.5287 21.5711 14.6534 21.5711C14.7583 21.5711 14.8633 21.536 14.9494 21.4649C15.1359 21.3089 15.1548 21.0389 14.9915 20.8606Z" fill="#458AF2"/>
<path d="M14.9287 16.9477C14.7332 16.8012 14.4516 16.8363 14.2991 17.0223L11.1601 20.8794C11.0085 21.0663 11.0435 21.3363 11.239 21.4811C11.3215 21.542 11.4184 21.5711 11.5144 21.5711C11.6471 21.5711 11.7798 21.5146 11.8677 21.4066L15.0067 17.5495C15.1592 17.3617 15.1242 17.0926 14.9287 16.9477Z" fill="#458AF2"/>
</g>
<defs>
<clipPath id="clip0_642_12043">
<rect width="27.4286" height="27.4286" fill="white" transform="translate(2.28516 2.28571)"/>
</clipPath>
</defs>
</svg>
