<svg width="84" height="7" viewBox="0 0 84 7" fill="none" xmlns="http://www.w3.org/2000/svg">
<g clip-path="url(#clip0_2601_23803)">
<path d="M47.36 0.171936H46.0953V7H47.36V0.171936Z" fill="white"/>
<path d="M55.7335 2.95455C54.6161 2.82116 54.1606 2.5197 54.1606 1.91291C54.1606 1.30613 54.6914 0.98616 55.617 0.98616C56.5426 0.98616 57.1211 1.33774 57.1211 1.95069V2.01854H58.3259V1.95069C58.3259 0.765651 57.2676 -0.000732422 55.6291 -0.000732422C53.9907 -0.000732422 52.8725 0.775675 52.8725 1.93142C52.8725 3.08716 53.7366 3.7325 55.5142 3.92062C56.7829 4.05401 57.2773 4.35162 57.2773 4.98153C57.2773 5.61145 56.6939 6.00312 55.6777 6.00312C54.6614 6.00312 53.9939 5.60991 53.9939 4.95224V4.88439H52.7535V4.95224C52.7535 6.19588 53.9009 6.99927 55.6777 6.99927C57.4545 6.99927 58.5662 6.20359 58.5662 4.97151C58.5662 3.82425 57.6665 3.18354 55.7343 2.95378L55.7335 2.95455Z" fill="white"/>
<path d="M80.6268 0.172706L80.6073 0.134155H80.0644L76.6669 6.8643L76.6597 7H77.9704L78.6234 5.63994L80.3306 2.30995L82.1236 5.82729L82.6771 7H84V6.8936L80.6268 0.172706Z" fill="white"/>
<path d="M40.1524 2.35312C40.1524 1.02853 39.0698 0.171936 37.3957 0.171936H34.5913V1.13955H37.3601C38.3084 1.13955 38.8529 1.5852 38.8529 2.36238C38.8529 3.13955 38.3132 3.60447 37.3722 3.60447H34.5913V7H35.856V4.56207H37.3828L39.1491 7H40.4987V6.87201L38.6417 4.37471C39.59 4.03393 40.1524 3.28373 40.1524 2.35235V2.35312Z" fill="white"/>
<path d="M12.7694 0.171936H11.5048V7H12.7694V0.171936Z" fill="white"/>
<path d="M5.56186 2.35312C5.56186 1.02853 4.47927 0.171936 2.8052 0.171936H0V1.13955H2.7688C3.71708 1.13955 4.26161 1.5852 4.26161 2.36238C4.26161 3.13955 3.72193 3.60447 2.78093 3.60447H0V7H1.26465V4.56207H2.79145L4.55775 7H5.90736V6.87201L4.05043 4.37471C4.99872 4.03393 5.56105 3.28373 5.56105 2.35235L5.56186 2.35312Z" fill="white"/>
<path d="M65.4268 5.09558H64.1621V6.99998H65.4268V5.09558Z" fill="white"/>
<path d="M71.6942 5.09558H70.4296V6.99998H71.6942V5.09558Z" fill="white"/>
<path d="M71.1731 0.152649L67.9221 3.67462L64.6929 0.175779L64.6719 0.152649H64.1621V4.2151H65.4276L65.4162 2.62836L67.8217 5.20893L67.8428 5.23129H68.0143L70.4295 2.63145V4.22667H71.6942V4.2151V2.32227V0.152649H71.1731Z" fill="white"/>
<path d="M26.0454 0.171936H23.3964V7H24.661V1.13955H26.0219C27.0681 1.13955 27.6936 1.63223 27.6936 2.45798C27.6936 3.28373 27.0689 3.77641 26.0219 3.77641H25.7096V4.75328H26.0454C27.8085 4.75328 28.993 3.82729 28.993 2.44873C28.993 1.07016 27.8085 0.171936 26.0454 0.171936V0.171936Z" fill="white"/>
</g>
<defs>
<clipPath id="clip0_2601_23803">
<rect width="84" height="7" fill="white"/>
</clipPath>
</defs>
</svg>
